<svg width="3840" height="2160" viewBox="0 0 3840 2160" fill="none" xmlns="http://www.w3.org/2000/svg">
<rect width="3840" height="2160" fill="#1E2952"/>
<path d="M1376.01 574.495C1376.18 573.362 1377.82 573.362 1377.99 574.495L1383.74 612.291C1383.81 612.721 1384.14 613.06 1384.57 613.128L1421.76 619.012C1422.88 619.19 1422.88 620.81 1421.76 620.988L1384.57 626.872C1384.14 626.94 1383.81 627.279 1383.74 627.709L1377.99 665.505C1377.82 666.638 1376.18 666.638 1376.01 665.505L1370.26 627.709C1370.19 627.279 1369.86 626.94 1369.43 626.872L1332.24 620.988C1331.12 620.81 1331.12 619.19 1332.24 619.012L1369.43 613.128C1369.86 613.06 1370.19 612.721 1370.26 612.291L1376.01 574.495Z" fill="white"/>
<path d="M604.011 88.4948C604.184 87.3621 605.816 87.3621 605.989 88.4948L611.742 126.291C611.807 126.721 612.144 127.06 612.574 127.128L649.758 133.012C650.883 133.19 650.883 134.81 649.758 134.988L612.574 140.872C612.144 140.94 611.807 141.279 611.742 141.709L605.989 179.505C605.816 180.638 604.184 180.638 604.011 179.505L598.258 141.709C598.193 141.279 597.856 140.94 597.426 140.872L560.242 134.988C559.117 134.81 559.117 133.19 560.242 133.012L597.426 127.128C597.856 127.06 598.193 126.721 598.258 126.291L604.011 88.4948Z" fill="white"/>
<path d="M70.0114 1358.49C70.1838 1357.36 71.8162 1357.36 71.9886 1358.49L77.7418 1396.29C77.8074 1396.72 78.144 1397.06 78.5741 1397.13L115.758 1403.01C116.883 1403.19 116.883 1404.81 115.758 1404.99L78.5741 1410.87C78.144 1410.94 77.8074 1411.28 77.7418 1411.71L71.9886 1449.51C71.8162 1450.64 70.1838 1450.64 70.0114 1449.51L64.2582 1411.71C64.1926 1411.28 63.856 1410.94 63.4259 1410.87L26.2417 1404.99C25.1167 1404.81 25.1167 1403.19 26.2417 1403.01L63.4259 1397.13C63.856 1397.06 64.1926 1396.72 64.2582 1396.29L70.0114 1358.49Z" fill="white"/>
<path d="M956.011 1750.49C956.184 1749.36 957.816 1749.36 957.989 1750.49L963.742 1788.29C963.807 1788.72 964.144 1789.06 964.574 1789.13L1001.76 1795.01C1002.88 1795.19 1002.88 1796.81 1001.76 1796.99L964.574 1802.87C964.144 1802.94 963.807 1803.28 963.742 1803.71L957.989 1841.51C957.816 1842.64 956.184 1842.64 956.011 1841.51L950.258 1803.71C950.193 1803.28 949.856 1802.94 949.426 1802.87L912.242 1796.99C911.117 1796.81 911.117 1795.19 912.242 1795.01L949.426 1789.13C949.856 1789.06 950.193 1788.72 950.258 1788.29L956.011 1750.49Z" fill="white"/>
<path d="M308.011 1802.49C308.184 1801.36 309.816 1801.36 309.989 1802.49L315.742 1840.29C315.807 1840.72 316.144 1841.06 316.574 1841.13L353.758 1847.01C354.883 1847.19 354.883 1848.81 353.758 1848.99L316.574 1854.87C316.144 1854.94 315.807 1855.28 315.742 1855.71L309.989 1893.51C309.816 1894.64 308.184 1894.64 308.011 1893.51L302.258 1855.71C302.193 1855.28 301.856 1854.94 301.426 1854.87L264.242 1848.99C263.117 1848.81 263.117 1847.19 264.242 1847.01L301.426 1841.13C301.856 1841.06 302.193 1840.72 302.258 1840.29L308.011 1802.49Z" fill="white"/>
<path d="M1188.01 1510.49C1188.18 1509.36 1189.82 1509.36 1189.99 1510.49L1195.74 1548.29C1195.81 1548.72 1196.14 1549.06 1196.57 1549.13L1233.76 1555.01C1234.88 1555.19 1234.88 1556.81 1233.76 1556.99L1196.57 1562.87C1196.14 1562.94 1195.81 1563.28 1195.74 1563.71L1189.99 1601.51C1189.82 1602.64 1188.18 1602.64 1188.01 1601.51L1182.26 1563.71C1182.19 1563.28 1181.86 1562.94 1181.43 1562.87L1144.24 1556.99C1143.12 1556.81 1143.12 1555.19 1144.24 1555.01L1181.43 1549.13C1181.86 1549.06 1182.19 1548.72 1182.26 1548.29L1188.01 1510.49Z" fill="white"/>
<path d="M552.011 1254.49C552.184 1253.36 553.816 1253.36 553.989 1254.49L559.742 1292.29C559.807 1292.72 560.144 1293.06 560.574 1293.13L597.758 1299.01C598.883 1299.19 598.883 1300.81 597.758 1300.99L560.574 1306.87C560.144 1306.94 559.807 1307.28 559.742 1307.71L553.989 1345.51C553.816 1346.64 552.184 1346.64 552.011 1345.51L546.258 1307.71C546.193 1307.28 545.856 1306.94 545.426 1306.87L508.242 1300.99C507.117 1300.81 507.117 1299.19 508.242 1299.01L545.426 1293.13C545.856 1293.06 546.193 1292.72 546.258 1292.29L552.011 1254.49Z" fill="white"/>
<path d="M1136.01 148.495C1136.18 147.362 1137.82 147.362 1137.99 148.495L1143.74 186.291C1143.81 186.721 1144.14 187.06 1144.57 187.128L1181.76 193.012C1182.88 193.19 1182.88 194.81 1181.76 194.988L1144.57 200.872C1144.14 200.94 1143.81 201.279 1143.74 201.709L1137.99 239.505C1137.82 240.638 1136.18 240.638 1136.01 239.505L1130.26 201.709C1130.19 201.279 1129.86 200.94 1129.43 200.872L1092.24 194.988C1091.12 194.81 1091.12 193.19 1092.24 193.012L1129.43 187.128C1129.86 187.06 1130.19 186.721 1130.26 186.291L1136.01 148.495Z" fill="white"/>
<path d="M930.011 1034.49C930.184 1033.36 931.816 1033.36 931.989 1034.49L937.742 1072.29C937.807 1072.72 938.144 1073.06 938.574 1073.13L975.758 1079.01C976.883 1079.19 976.883 1080.81 975.758 1080.99L938.574 1086.87C938.144 1086.94 937.807 1087.28 937.742 1087.71L931.989 1125.51C931.816 1126.64 930.184 1126.64 930.011 1125.51L924.258 1087.71C924.193 1087.28 923.856 1086.94 923.426 1086.87L886.242 1080.99C885.117 1080.81 885.117 1079.19 886.242 1079.01L923.426 1073.13C923.856 1073.06 924.193 1072.72 924.258 1072.29L930.011 1034.49Z" fill="white"/>
<path d="M334.011 982.495C334.184 981.362 335.816 981.362 335.989 982.495L341.742 1020.29C341.807 1020.72 342.144 1021.06 342.574 1021.13L379.758 1027.01C380.883 1027.19 380.883 1028.81 379.758 1028.99L342.574 1034.87C342.144 1034.94 341.807 1035.28 341.742 1035.71L335.989 1073.51C335.816 1074.64 334.184 1074.64 334.011 1073.51L328.258 1035.71C328.193 1035.28 327.856 1034.94 327.426 1034.87L290.242 1028.99C289.117 1028.81 289.117 1027.19 290.242 1027.01L327.426 1021.13C327.856 1021.06 328.193 1020.72 328.258 1020.29L334.011 982.495Z" fill="white"/>
<path d="M854.011 522.495C854.184 521.362 855.816 521.362 855.989 522.495L861.742 560.291C861.807 560.721 862.144 561.06 862.574 561.128L899.758 567.012C900.883 567.19 900.883 568.81 899.758 568.988L862.574 574.872C862.144 574.94 861.807 575.279 861.742 575.709L855.989 613.505C855.816 614.638 854.184 614.638 854.011 613.505L848.258 575.709C848.193 575.279 847.856 574.94 847.426 574.872L810.242 568.988C809.117 568.81 809.117 567.19 810.242 567.012L847.426 561.128C847.856 561.06 848.193 560.721 848.258 560.291L854.011 522.495Z" fill="white"/>
<path d="M206.011 368.495C206.184 367.362 207.816 367.362 207.989 368.495L213.742 406.291C213.807 406.721 214.144 407.06 214.574 407.128L251.758 413.012C252.883 413.19 252.883 414.81 251.758 414.988L214.574 420.872C214.144 420.94 213.807 421.279 213.742 421.709L207.989 459.505C207.816 460.638 206.184 460.638 206.011 459.505L200.258 421.709C200.193 421.279 199.856 420.94 199.426 420.872L162.242 414.988C161.117 414.81 161.117 413.19 162.242 413.012L199.426 407.128C199.856 407.06 200.193 406.721 200.258 406.291L206.011 368.495Z" fill="white"/>
<path d="M3444.01 1254.49C3444.18 1253.36 3445.82 1253.36 3445.99 1254.49L3451.74 1292.29C3451.81 1292.72 3452.14 1293.06 3452.57 1293.13L3489.76 1299.01C3490.88 1299.19 3490.88 1300.81 3489.76 1300.99L3452.57 1306.87C3452.14 1306.94 3451.81 1307.28 3451.74 1307.71L3445.99 1345.51C3445.82 1346.64 3444.18 1346.64 3444.01 1345.51L3438.26 1307.71C3438.19 1307.28 3437.86 1306.94 3437.43 1306.87L3400.24 1300.99C3399.12 1300.81 3399.12 1299.19 3400.24 1299.01L3437.43 1293.13C3437.86 1293.06 3438.19 1292.72 3438.26 1292.29L3444.01 1254.49Z" fill="white"/>
<path d="M3212.01 1854.49C3212.18 1853.36 3213.82 1853.36 3213.99 1854.49L3219.74 1892.29C3219.81 1892.72 3220.14 1893.06 3220.57 1893.13L3257.76 1899.01C3258.88 1899.19 3258.88 1900.81 3257.76 1900.99L3220.57 1906.87C3220.14 1906.94 3219.81 1907.28 3219.74 1907.71L3213.99 1945.51C3213.82 1946.64 3212.18 1946.64 3212.01 1945.51L3206.26 1907.71C3206.19 1907.28 3205.86 1906.94 3205.43 1906.87L3168.24 1900.99C3167.12 1900.81 3167.12 1899.19 3168.24 1899.01L3205.43 1893.13C3205.86 1893.06 3206.19 1892.72 3206.26 1892.29L3212.01 1854.49Z" fill="white"/>
<path d="M1444.01 1906.49C1444.18 1905.36 1445.82 1905.36 1445.99 1906.49L1451.74 1944.29C1451.81 1944.72 1452.14 1945.06 1452.57 1945.13L1489.76 1951.01C1490.88 1951.19 1490.88 1952.81 1489.76 1952.99L1452.57 1958.87C1452.14 1958.94 1451.81 1959.28 1451.74 1959.71L1445.99 1997.51C1445.82 1998.64 1444.18 1998.64 1444.01 1997.51L1438.26 1959.71C1438.19 1959.28 1437.86 1958.94 1437.43 1958.87L1400.24 1952.99C1399.12 1952.81 1399.12 1951.19 1400.24 1951.01L1437.43 1945.13C1437.86 1945.06 1438.19 1944.72 1438.26 1944.29L1444.01 1906.49Z" fill="white"/>
<path d="M2920.01 1254.49C2920.18 1253.36 2921.82 1253.36 2921.99 1254.49L2927.74 1292.29C2927.81 1292.72 2928.14 1293.06 2928.57 1293.13L2965.76 1299.01C2966.88 1299.19 2966.88 1300.81 2965.76 1300.99L2928.57 1306.87C2928.14 1306.94 2927.81 1307.28 2927.74 1307.71L2921.99 1345.51C2921.82 1346.64 2920.18 1346.64 2920.01 1345.51L2914.26 1307.71C2914.19 1307.28 2913.86 1306.94 2913.43 1306.87L2876.24 1300.99C2875.12 1300.81 2875.12 1299.19 2876.24 1299.01L2913.43 1293.13C2913.86 1293.06 2914.19 1292.72 2914.26 1292.29L2920.01 1254.49Z" fill="white"/>
<path d="M1570.01 1068.49C1570.18 1067.36 1571.82 1067.36 1571.99 1068.49L1577.74 1106.29C1577.81 1106.72 1578.14 1107.06 1578.57 1107.13L1615.76 1113.01C1616.88 1113.19 1616.88 1114.81 1615.76 1114.99L1578.57 1120.87C1578.14 1120.94 1577.81 1121.28 1577.74 1121.71L1571.99 1159.51C1571.82 1160.64 1570.18 1160.64 1570.01 1159.51L1564.26 1121.71C1564.19 1121.28 1563.86 1120.94 1563.43 1120.87L1526.24 1114.99C1525.12 1114.81 1525.12 1113.19 1526.24 1113.01L1563.43 1107.13C1563.86 1107.06 1564.19 1106.72 1564.26 1106.29L1570.01 1068.49Z" fill="white"/>
<path d="M3702.01 1698.49C3702.18 1697.36 3703.82 1697.36 3703.99 1698.49L3709.74 1736.29C3709.81 1736.72 3710.14 1737.06 3710.57 1737.13L3747.76 1743.01C3748.88 1743.19 3748.88 1744.81 3747.76 1744.99L3710.57 1750.87C3710.14 1750.94 3709.81 1751.28 3709.74 1751.71L3703.99 1789.51C3703.82 1790.64 3702.18 1790.64 3702.01 1789.51L3696.26 1751.71C3696.19 1751.28 3695.86 1750.94 3695.43 1750.87L3658.24 1744.99C3657.12 1744.81 3657.12 1743.19 3658.24 1743.01L3695.43 1737.13C3695.86 1737.06 3696.19 1736.72 3696.26 1736.29L3702.01 1698.49Z" fill="white"/>
<path d="M3728.01 878.495C3728.18 877.362 3729.82 877.362 3729.99 878.495L3735.74 916.291C3735.81 916.721 3736.14 917.06 3736.57 917.128L3773.76 923.012C3774.88 923.19 3774.88 924.81 3773.76 924.988L3736.57 930.872C3736.14 930.94 3735.81 931.279 3735.74 931.709L3729.99 969.505C3729.82 970.638 3728.18 970.638 3728.01 969.505L3722.26 931.709C3722.19 931.279 3721.86 930.94 3721.43 930.872L3684.24 924.988C3683.12 924.81 3683.12 923.19 3684.24 923.012L3721.43 917.128C3721.86 917.06 3722.19 916.721 3722.26 916.291L3728.01 878.495Z" fill="white"/>
<path d="M3600.01 264.495C3600.18 263.362 3601.82 263.362 3601.99 264.495L3607.74 302.291C3607.81 302.721 3608.14 303.06 3608.57 303.128L3645.76 309.012C3646.88 309.19 3646.88 310.81 3645.76 310.988L3608.57 316.872C3608.14 316.94 3607.81 317.279 3607.74 317.709L3601.99 355.505C3601.82 356.638 3600.18 356.638 3600.01 355.505L3594.26 317.709C3594.19 317.279 3593.86 316.94 3593.43 316.872L3556.24 310.988C3555.12 310.81 3555.12 309.19 3556.24 309.012L3593.43 303.128C3593.86 303.06 3594.19 302.721 3594.26 302.291L3600.01 264.495Z" fill="white"/>
<path d="M1673.99 1443.51C1673.82 1444.64 1672.18 1444.64 1672.01 1443.51L1666.26 1405.71C1666.19 1405.28 1665.86 1404.94 1665.43 1404.87L1628.24 1398.99C1627.12 1398.81 1627.12 1397.19 1628.24 1397.01L1665.43 1391.13C1665.86 1391.06 1666.19 1390.72 1666.26 1390.29L1672.01 1352.49C1672.18 1351.36 1673.82 1351.36 1673.99 1352.49L1679.74 1390.29C1679.81 1390.72 1680.14 1391.06 1680.57 1391.13L1717.76 1397.01C1718.88 1397.19 1718.88 1398.81 1717.76 1398.99L1680.57 1404.87C1680.14 1404.94 1679.81 1405.28 1679.74 1405.71L1673.99 1443.51Z" fill="white"/>
<path d="M2445.99 1929.51C2445.82 1930.64 2444.18 1930.64 2444.01 1929.51L2438.26 1891.71C2438.19 1891.28 2437.86 1890.94 2437.43 1890.87L2400.24 1884.99C2399.12 1884.81 2399.12 1883.19 2400.24 1883.01L2437.43 1877.13C2437.86 1877.06 2438.19 1876.72 2438.26 1876.29L2444.01 1838.49C2444.18 1837.36 2445.82 1837.36 2445.99 1838.49L2451.74 1876.29C2451.81 1876.72 2452.14 1877.06 2452.57 1877.13L2489.76 1883.01C2490.88 1883.19 2490.88 1884.81 2489.76 1884.99L2452.57 1890.87C2452.14 1890.94 2451.81 1891.28 2451.74 1891.71L2445.99 1929.51Z" fill="white"/>
<path d="M2999.99 659.505C2999.82 660.638 2998.18 660.638 2998.01 659.505L2992.26 621.709C2992.19 621.279 2991.86 620.94 2991.43 620.872L2954.24 614.988C2953.12 614.81 2953.12 613.19 2954.24 613.012L2991.43 607.128C2991.86 607.06 2992.19 606.721 2992.26 606.291L2998.01 568.495C2998.18 567.362 2999.82 567.362 2999.99 568.495L3005.74 606.291C3005.81 606.721 3006.14 607.06 3006.57 607.128L3043.76 613.012C3044.88 613.19 3044.88 614.81 3043.76 614.988L3006.57 620.872C3006.14 620.94 3005.81 621.279 3005.74 621.709L2999.99 659.505Z" fill="white"/>
<path d="M2093.99 267.505C2093.82 268.638 2092.18 268.638 2092.01 267.505L2086.26 229.709C2086.19 229.279 2085.86 228.94 2085.43 228.872L2048.24 222.988C2047.12 222.81 2047.12 221.19 2048.24 221.012L2085.43 215.128C2085.86 215.06 2086.19 214.721 2086.26 214.291L2092.01 176.495C2092.18 175.362 2093.82 175.362 2093.99 176.495L2099.74 214.291C2099.81 214.721 2100.14 215.06 2100.57 215.128L2137.76 221.012C2138.88 221.19 2138.88 222.81 2137.76 222.988L2100.57 228.872C2100.14 228.94 2099.81 229.279 2099.74 229.709L2093.99 267.505Z" fill="white"/>
<path d="M2741.99 215.505C2741.82 216.638 2740.18 216.638 2740.01 215.505L2734.26 177.709C2734.19 177.279 2733.86 176.94 2733.43 176.872L2696.24 170.988C2695.12 170.81 2695.12 169.19 2696.24 169.012L2733.43 163.128C2733.86 163.06 2734.19 162.721 2734.26 162.291L2740.01 124.495C2740.18 123.362 2741.82 123.362 2741.99 124.495L2747.74 162.291C2747.81 162.721 2748.14 163.06 2748.57 163.128L2785.76 169.012C2786.88 169.19 2786.88 170.81 2785.76 170.988L2748.57 176.872C2748.14 176.94 2747.81 177.279 2747.74 177.709L2741.99 215.505Z" fill="white"/>
<path d="M1861.99 507.505C1861.82 508.638 1860.18 508.638 1860.01 507.505L1854.26 469.709C1854.19 469.279 1853.86 468.94 1853.43 468.872L1816.24 462.988C1815.12 462.81 1815.12 461.19 1816.24 461.012L1853.43 455.128C1853.86 455.06 1854.19 454.721 1854.26 454.291L1860.01 416.495C1860.18 415.362 1861.82 415.362 1861.99 416.495L1867.74 454.291C1867.81 454.721 1868.14 455.06 1868.57 455.128L1905.76 461.012C1906.88 461.19 1906.88 462.81 1905.76 462.988L1868.57 468.872C1868.14 468.94 1867.81 469.279 1867.74 469.709L1861.99 507.505Z" fill="white"/>
<path d="M2497.99 763.505C2497.82 764.638 2496.18 764.638 2496.01 763.505L2490.26 725.709C2490.19 725.279 2489.86 724.94 2489.43 724.872L2452.24 718.988C2451.12 718.81 2451.12 717.19 2452.24 717.012L2489.43 711.128C2489.86 711.06 2490.19 710.721 2490.26 710.291L2496.01 672.495C2496.18 671.362 2497.82 671.362 2497.99 672.495L2503.74 710.291C2503.81 710.721 2504.14 711.06 2504.57 711.128L2541.76 717.012C2542.88 717.19 2542.88 718.81 2541.76 718.988L2504.57 724.872C2504.14 724.94 2503.81 725.279 2503.74 725.709L2497.99 763.505Z" fill="white"/>
<path d="M1913.99 1869.51C1913.82 1870.64 1912.18 1870.64 1912.01 1869.51L1906.26 1831.71C1906.19 1831.28 1905.86 1830.94 1905.43 1830.87L1868.24 1824.99C1867.12 1824.81 1867.12 1823.19 1868.24 1823.01L1905.43 1817.13C1905.86 1817.06 1906.19 1816.72 1906.26 1816.29L1912.01 1778.49C1912.18 1777.36 1913.82 1777.36 1913.99 1778.49L1919.74 1816.29C1919.81 1816.72 1920.14 1817.06 1920.57 1817.13L1957.76 1823.01C1958.88 1823.19 1958.88 1824.81 1957.76 1824.99L1920.57 1830.87C1920.14 1830.94 1919.81 1831.28 1919.74 1831.71L1913.99 1869.51Z" fill="white"/>
<path d="M2119.99 983.505C2119.82 984.638 2118.18 984.638 2118.01 983.505L2112.26 945.709C2112.19 945.279 2111.86 944.94 2111.43 944.872L2074.24 938.988C2073.12 938.81 2073.12 937.19 2074.24 937.012L2111.43 931.128C2111.86 931.06 2112.19 930.721 2112.26 930.291L2118.01 892.495C2118.18 891.362 2119.82 891.362 2119.99 892.495L2125.74 930.291C2125.81 930.721 2126.14 931.06 2126.57 931.128L2163.76 937.012C2164.88 937.19 2164.88 938.81 2163.76 938.988L2126.57 944.872C2126.14 944.94 2125.81 945.279 2125.74 945.709L2119.99 983.505Z" fill="white"/>
<path d="M2715.99 1035.51C2715.82 1036.64 2714.18 1036.64 2714.01 1035.51L2708.26 997.709C2708.19 997.279 2707.86 996.94 2707.43 996.872L2670.24 990.988C2669.12 990.81 2669.12 989.19 2670.24 989.012L2707.43 983.128C2707.86 983.06 2708.19 982.721 2708.26 982.291L2714.01 944.495C2714.18 943.362 2715.82 943.362 2715.99 944.495L2721.74 982.291C2721.81 982.721 2722.14 983.06 2722.57 983.128L2759.76 989.012C2760.88 989.19 2760.88 990.81 2759.76 990.988L2722.57 996.872C2722.14 996.94 2721.81 997.279 2721.74 997.709L2715.99 1035.51Z" fill="white"/>
<path d="M2195.99 1495.51C2195.82 1496.64 2194.18 1496.64 2194.01 1495.51L2188.26 1457.71C2188.19 1457.28 2187.86 1456.94 2187.43 1456.87L2150.24 1450.99C2149.12 1450.81 2149.12 1449.19 2150.24 1449.01L2187.43 1443.13C2187.86 1443.06 2188.19 1442.72 2188.26 1442.29L2194.01 1404.49C2194.18 1403.36 2195.82 1403.36 2195.99 1404.49L2201.74 1442.29C2201.81 1442.72 2202.14 1443.06 2202.57 1443.13L2239.76 1449.01C2240.88 1449.19 2240.88 1450.81 2239.76 1450.99L2202.57 1456.87C2202.14 1456.94 2201.81 1457.28 2201.74 1457.71L2195.99 1495.51Z" fill="white"/>
<path d="M2843.99 1649.51C2843.82 1650.64 2842.18 1650.64 2842.01 1649.51L2836.26 1611.71C2836.19 1611.28 2835.86 1610.94 2835.43 1610.87L2798.24 1604.99C2797.12 1604.81 2797.12 1603.19 2798.24 1603.01L2835.43 1597.13C2835.86 1597.06 2836.19 1596.72 2836.26 1596.29L2842.01 1558.49C2842.18 1557.36 2843.82 1557.36 2843.99 1558.49L2849.74 1596.29C2849.81 1596.72 2850.14 1597.06 2850.57 1597.13L2887.76 1603.01C2888.88 1603.19 2888.88 1604.81 2887.76 1604.99L2850.57 1610.87C2850.14 1610.94 2849.81 1611.28 2849.74 1611.71L2843.99 1649.51Z" fill="white"/>
</svg>
