<svg width="1920" height="1080" viewBox="0 0 1920 1080" fill="none" xmlns="http://www.w3.org/2000/svg">
<rect width="1920" height="1080" fill="#1E2952"/>
<path d="M687.511 290.495C687.684 289.362 689.316 289.362 689.489 290.495L691.816 305.784C691.881 306.214 692.218 306.553 692.648 306.621L707.758 309.012C708.883 309.19 708.883 310.81 707.758 310.988L692.648 313.379C692.218 313.447 691.881 313.785 691.816 314.216L689.489 329.505C689.316 330.638 687.684 330.638 687.511 329.505L685.184 314.216C685.119 313.786 684.782 313.447 684.352 313.379L669.242 310.988C668.117 310.81 668.117 309.19 669.242 309.012L684.352 306.621C684.782 306.553 685.119 306.215 685.184 305.784L687.511 290.495Z" fill="white"/>
<path d="M301.511 47.4948C301.684 46.3621 303.316 46.3621 303.489 47.4948L305.816 62.784C305.881 63.2145 306.218 63.5531 306.648 63.6212L321.758 66.0123C322.883 66.1903 322.883 67.8097 321.758 67.9877L306.648 70.3788C306.218 70.4469 305.881 70.7855 305.816 71.216L303.489 86.5052C303.316 87.6379 301.684 87.6379 301.511 86.5052L299.184 71.216C299.119 70.7855 298.782 70.4469 298.352 70.3788L283.242 67.9877C282.117 67.8097 282.117 66.1903 283.242 66.0123L298.352 63.6212C298.782 63.5531 299.119 63.2145 299.184 62.784L301.511 47.4948Z" fill="white"/>
<path d="M34.5114 682.495C34.6838 681.362 36.3162 681.362 36.4886 682.495L38.8159 697.784C38.8814 698.214 39.2181 698.553 39.6482 698.621L54.7583 701.012C55.8833 701.19 55.8833 702.81 54.7583 702.988L39.6482 705.379C39.2181 705.447 38.8814 705.785 38.8159 706.216L36.4886 721.505C36.3162 722.638 34.6838 722.638 34.5114 721.505L32.1841 706.216C32.1186 705.786 31.7819 705.447 31.3518 705.379L16.2417 702.988C15.1167 702.81 15.1167 701.19 16.2417 701.012L31.3518 698.621C31.7819 698.553 32.1186 698.215 32.1841 697.784L34.5114 682.495Z" fill="white"/>
<path d="M477.511 878.495C477.684 877.362 479.316 877.362 479.489 878.495L481.816 893.784C481.881 894.214 482.218 894.553 482.648 894.621L497.758 897.012C498.883 897.19 498.883 898.81 497.758 898.988L482.648 901.379C482.218 901.447 481.881 901.785 481.816 902.216L479.489 917.505C479.316 918.638 477.684 918.638 477.511 917.505L475.184 902.216C475.119 901.786 474.782 901.447 474.352 901.379L459.242 898.988C458.117 898.81 458.117 897.19 459.242 897.012L474.352 894.621C474.782 894.553 475.119 894.215 475.184 893.784L477.511 878.495Z" fill="white"/>
<path d="M153.511 904.495C153.684 903.362 155.316 903.362 155.489 904.495L157.816 919.784C157.881 920.214 158.218 920.553 158.648 920.621L173.758 923.012C174.883 923.19 174.883 924.81 173.758 924.988L158.648 927.379C158.218 927.447 157.881 927.785 157.816 928.216L155.489 943.505C155.316 944.638 153.684 944.638 153.511 943.505L151.184 928.216C151.119 927.786 150.782 927.447 150.352 927.379L135.242 924.988C134.117 924.81 134.117 923.19 135.242 923.012L150.352 920.621C150.782 920.553 151.119 920.215 151.184 919.784L153.511 904.495Z" fill="white"/>
<path d="M593.511 758.495C593.684 757.362 595.316 757.362 595.489 758.495L597.816 773.784C597.881 774.214 598.218 774.553 598.648 774.621L613.758 777.012C614.883 777.19 614.883 778.81 613.758 778.988L598.648 781.379C598.218 781.447 597.881 781.785 597.816 782.216L595.489 797.505C595.316 798.638 593.684 798.638 593.511 797.505L591.184 782.216C591.119 781.786 590.782 781.447 590.352 781.379L575.242 778.988C574.117 778.81 574.117 777.19 575.242 777.012L590.352 774.621C590.782 774.553 591.119 774.215 591.184 773.784L593.511 758.495Z" fill="white"/>
<path d="M275.511 630.495C275.684 629.362 277.316 629.362 277.489 630.495L279.816 645.784C279.881 646.214 280.218 646.553 280.648 646.621L295.758 649.012C296.883 649.19 296.883 650.81 295.758 650.988L280.648 653.379C280.218 653.447 279.881 653.785 279.816 654.216L277.489 669.505C277.316 670.638 275.684 670.638 275.511 669.505L273.184 654.216C273.119 653.786 272.782 653.447 272.352 653.379L257.242 650.988C256.117 650.81 256.117 649.19 257.242 649.012L272.352 646.621C272.782 646.553 273.119 646.215 273.184 645.784L275.511 630.495Z" fill="white"/>
<path d="M567.511 77.4948C567.684 76.3621 569.316 76.3621 569.489 77.4948L571.816 92.784C571.881 93.2145 572.218 93.5531 572.648 93.6212L587.758 96.0123C588.883 96.1903 588.883 97.8097 587.758 97.9877L572.648 100.379C572.218 100.447 571.881 100.785 571.816 101.216L569.489 116.505C569.316 117.638 567.684 117.638 567.511 116.505L565.184 101.216C565.119 100.786 564.782 100.447 564.352 100.379L549.242 97.9877C548.117 97.8097 548.117 96.1903 549.242 96.0123L564.352 93.6212C564.782 93.5531 565.119 93.2145 565.184 92.784L567.511 77.4948Z" fill="white"/>
<path d="M464.511 520.495C464.684 519.362 466.316 519.362 466.489 520.495L468.816 535.784C468.881 536.214 469.218 536.553 469.648 536.621L484.758 539.012C485.883 539.19 485.883 540.81 484.758 540.988L469.648 543.379C469.218 543.447 468.881 543.785 468.816 544.216L466.489 559.505C466.316 560.638 464.684 560.638 464.511 559.505L462.184 544.216C462.119 543.786 461.782 543.447 461.352 543.379L446.242 540.988C445.117 540.81 445.117 539.19 446.242 539.012L461.352 536.621C461.782 536.553 462.119 536.215 462.184 535.784L464.511 520.495Z" fill="white"/>
<path d="M166.511 494.495C166.684 493.362 168.316 493.362 168.489 494.495L170.816 509.784C170.881 510.214 171.218 510.553 171.648 510.621L186.758 513.012C187.883 513.19 187.883 514.81 186.758 514.988L171.648 517.379C171.218 517.447 170.881 517.785 170.816 518.216L168.489 533.505C168.316 534.638 166.684 534.638 166.511 533.505L164.184 518.216C164.119 517.786 163.782 517.447 163.352 517.379L148.242 514.988C147.117 514.81 147.117 513.19 148.242 513.012L163.352 510.621C163.782 510.553 164.119 510.215 164.184 509.784L166.511 494.495Z" fill="white"/>
<path d="M426.511 264.495C426.684 263.362 428.316 263.362 428.489 264.495L430.816 279.784C430.881 280.214 431.218 280.553 431.648 280.621L446.758 283.012C447.883 283.19 447.883 284.81 446.758 284.988L431.648 287.379C431.218 287.447 430.881 287.785 430.816 288.216L428.489 303.505C428.316 304.638 426.684 304.638 426.511 303.505L424.184 288.216C424.119 287.786 423.782 287.447 423.352 287.379L408.242 284.988C407.117 284.81 407.117 283.19 408.242 283.012L423.352 280.621C423.782 280.553 424.119 280.215 424.184 279.784L426.511 264.495Z" fill="white"/>
<path d="M102.511 187.495C102.684 186.362 104.316 186.362 104.489 187.495L106.816 202.784C106.881 203.214 107.218 203.553 107.648 203.621L122.758 206.012C123.883 206.19 123.883 207.81 122.758 207.988L107.648 210.379C107.218 210.447 106.881 210.785 106.816 211.216L104.489 226.505C104.316 227.638 102.684 227.638 102.511 226.505L100.184 211.216C100.119 210.786 99.7819 210.447 99.3518 210.379L84.2417 207.988C83.1167 207.81 83.1167 206.19 84.2417 206.012L99.3518 203.621C99.7819 203.553 100.119 203.215 100.184 202.784L102.511 187.495Z" fill="white"/>
<path d="M1721.51 630.495C1721.68 629.362 1723.32 629.362 1723.49 630.495L1725.82 645.784C1725.88 646.214 1726.22 646.553 1726.65 646.621L1741.76 649.012C1742.88 649.19 1742.88 650.81 1741.76 650.988L1726.65 653.379C1726.22 653.447 1725.88 653.785 1725.82 654.216L1723.49 669.505C1723.32 670.638 1721.68 670.638 1721.51 669.505L1719.18 654.216C1719.12 653.786 1718.78 653.447 1718.35 653.379L1703.24 650.988C1702.12 650.81 1702.12 649.19 1703.24 649.012L1718.35 646.621C1718.78 646.553 1719.12 646.215 1719.18 645.784L1721.51 630.495Z" fill="white"/>
<path d="M1605.51 930.495C1605.68 929.362 1607.32 929.362 1607.49 930.495L1609.82 945.784C1609.88 946.214 1610.22 946.553 1610.65 946.621L1625.76 949.012C1626.88 949.19 1626.88 950.81 1625.76 950.988L1610.65 953.379C1610.22 953.447 1609.88 953.785 1609.82 954.216L1607.49 969.505C1607.32 970.638 1605.68 970.638 1605.51 969.505L1603.18 954.216C1603.12 953.786 1602.78 953.447 1602.35 953.379L1587.24 950.988C1586.12 950.81 1586.12 949.19 1587.24 949.012L1602.35 946.621C1602.78 946.553 1603.12 946.215 1603.18 945.784L1605.51 930.495Z" fill="white"/>
<path d="M721.511 956.495C721.684 955.362 723.316 955.362 723.489 956.495L725.816 971.784C725.881 972.214 726.218 972.553 726.648 972.621L741.758 975.012C742.883 975.19 742.883 976.81 741.758 976.988L726.648 979.379C726.218 979.447 725.881 979.785 725.816 980.216L723.489 995.505C723.316 996.638 721.684 996.638 721.511 995.505L719.184 980.216C719.119 979.786 718.782 979.447 718.352 979.379L703.242 976.988C702.117 976.81 702.117 975.19 703.242 975.012L718.352 972.621C718.782 972.553 719.119 972.215 719.184 971.784L721.511 956.495Z" fill="white"/>
<path d="M1459.51 630.495C1459.68 629.362 1461.32 629.362 1461.49 630.495L1463.82 645.784C1463.88 646.214 1464.22 646.553 1464.65 646.621L1479.76 649.012C1480.88 649.19 1480.88 650.81 1479.76 650.988L1464.65 653.379C1464.22 653.447 1463.88 653.785 1463.82 654.216L1461.49 669.505C1461.32 670.638 1459.68 670.638 1459.51 669.505L1457.18 654.216C1457.12 653.786 1456.78 653.447 1456.35 653.379L1441.24 650.988C1440.12 650.81 1440.12 649.19 1441.24 649.012L1456.35 646.621C1456.78 646.553 1457.12 646.215 1457.18 645.784L1459.51 630.495Z" fill="white"/>
<path d="M784.511 537.495C784.684 536.362 786.316 536.362 786.489 537.495L788.816 552.784C788.881 553.214 789.218 553.553 789.648 553.621L804.758 556.012C805.883 556.19 805.883 557.81 804.758 557.988L789.648 560.379C789.218 560.447 788.881 560.785 788.816 561.216L786.489 576.505C786.316 577.638 784.684 577.638 784.511 576.505L782.184 561.216C782.119 560.786 781.782 560.447 781.352 560.379L766.242 557.988C765.117 557.81 765.117 556.19 766.242 556.012L781.352 553.621C781.782 553.553 782.119 553.215 782.184 552.784L784.511 537.495Z" fill="white"/>
<path d="M1850.51 852.495C1850.68 851.362 1852.32 851.362 1852.49 852.495L1854.82 867.784C1854.88 868.214 1855.22 868.553 1855.65 868.621L1870.76 871.012C1871.88 871.19 1871.88 872.81 1870.76 872.988L1855.65 875.379C1855.22 875.447 1854.88 875.785 1854.82 876.216L1852.49 891.505C1852.32 892.638 1850.68 892.638 1850.51 891.505L1848.18 876.216C1848.12 875.786 1847.78 875.447 1847.35 875.379L1832.24 872.988C1831.12 872.81 1831.12 871.19 1832.24 871.012L1847.35 868.621C1847.78 868.553 1848.12 868.215 1848.18 867.784L1850.51 852.495Z" fill="white"/>
<path d="M1863.51 442.495C1863.68 441.362 1865.32 441.362 1865.49 442.495L1867.82 457.784C1867.88 458.214 1868.22 458.553 1868.65 458.621L1883.76 461.012C1884.88 461.19 1884.88 462.81 1883.76 462.988L1868.65 465.379C1868.22 465.447 1867.88 465.785 1867.82 466.216L1865.49 481.505C1865.32 482.638 1863.68 482.638 1863.51 481.505L1861.18 466.216C1861.12 465.786 1860.78 465.447 1860.35 465.379L1845.24 462.988C1844.12 462.81 1844.12 461.19 1845.24 461.012L1860.35 458.621C1860.78 458.553 1861.12 458.215 1861.18 457.784L1863.51 442.495Z" fill="white"/>
<path d="M1799.51 135.495C1799.68 134.362 1801.32 134.362 1801.49 135.495L1803.82 150.784C1803.88 151.214 1804.22 151.553 1804.65 151.621L1819.76 154.012C1820.88 154.19 1820.88 155.81 1819.76 155.988L1804.65 158.379C1804.22 158.447 1803.88 158.785 1803.82 159.216L1801.49 174.505C1801.32 175.638 1799.68 175.638 1799.51 174.505L1797.18 159.216C1797.12 158.786 1796.78 158.447 1796.35 158.379L1781.24 155.988C1780.12 155.81 1780.12 154.19 1781.24 154.012L1796.35 151.621C1796.78 151.553 1797.12 151.215 1797.18 150.784L1799.51 135.495Z" fill="white"/>
<path d="M837.489 718.505C837.316 719.638 835.684 719.638 835.511 718.505L833.184 703.216C833.119 702.785 832.782 702.447 832.352 702.379L817.242 699.988C816.117 699.81 816.117 698.19 817.242 698.012L832.352 695.621C832.782 695.553 833.119 695.214 833.184 694.784L835.511 679.495C835.684 678.362 837.316 678.362 837.489 679.495L839.816 694.784C839.881 695.214 840.218 695.553 840.648 695.621L855.758 698.012C856.883 698.19 856.883 699.81 855.758 699.988L840.648 702.379C840.218 702.447 839.881 702.785 839.816 703.216L837.489 718.505Z" fill="white"/>
<path d="M1223.49 961.505C1223.32 962.638 1221.68 962.638 1221.51 961.505L1219.18 946.216C1219.12 945.785 1218.78 945.447 1218.35 945.379L1203.24 942.988C1202.12 942.81 1202.12 941.19 1203.24 941.012L1218.35 938.621C1218.78 938.553 1219.12 938.214 1219.18 937.784L1221.51 922.495C1221.68 921.362 1223.32 921.362 1223.49 922.495L1225.82 937.784C1225.88 938.214 1226.22 938.553 1226.65 938.621L1241.76 941.012C1242.88 941.19 1242.88 942.81 1241.76 942.988L1226.65 945.379C1226.22 945.447 1225.88 945.785 1225.82 946.216L1223.49 961.505Z" fill="white"/>
<path d="M1500.49 326.505C1500.32 327.638 1498.68 327.638 1498.51 326.505L1496.18 311.216C1496.12 310.785 1495.78 310.447 1495.35 310.379L1480.24 307.988C1479.12 307.81 1479.12 306.19 1480.24 306.012L1495.35 303.621C1495.78 303.553 1496.12 303.214 1496.18 302.784L1498.51 287.495C1498.68 286.362 1500.32 286.362 1500.49 287.495L1502.82 302.784C1502.88 303.214 1503.22 303.553 1503.65 303.621L1518.76 306.012C1519.88 306.19 1519.88 307.81 1518.76 307.988L1503.65 310.379C1503.22 310.447 1502.88 310.785 1502.82 311.216L1500.49 326.505Z" fill="white"/>
<path d="M1047.49 130.505C1047.32 131.638 1045.68 131.638 1045.51 130.505L1043.18 115.216C1043.12 114.785 1042.78 114.447 1042.35 114.379L1027.24 111.988C1026.12 111.81 1026.12 110.19 1027.24 110.012L1042.35 107.621C1042.78 107.553 1043.12 107.214 1043.18 106.784L1045.51 91.4948C1045.68 90.3621 1047.32 90.3621 1047.49 91.4948L1049.82 106.784C1049.88 107.214 1050.22 107.553 1050.65 107.621L1065.76 110.012C1066.88 110.19 1066.88 111.81 1065.76 111.988L1050.65 114.379C1050.22 114.447 1049.88 114.785 1049.82 115.216L1047.49 130.505Z" fill="white"/>
<path d="M1371.49 104.505C1371.32 105.638 1369.68 105.638 1369.51 104.505L1367.18 89.216C1367.12 88.7855 1366.78 88.4469 1366.35 88.3788L1351.24 85.9877C1350.12 85.8097 1350.12 84.1903 1351.24 84.0123L1366.35 81.6212C1366.78 81.5531 1367.12 81.2145 1367.18 80.784L1369.51 65.4948C1369.68 64.3621 1371.32 64.3621 1371.49 65.4948L1373.82 80.784C1373.88 81.2145 1374.22 81.5531 1374.65 81.6212L1389.76 84.0123C1390.88 84.1903 1390.88 85.8097 1389.76 85.9877L1374.65 88.3788C1374.22 88.4469 1373.88 88.7855 1373.82 89.216L1371.49 104.505Z" fill="white"/>
<path d="M931.489 250.505C931.316 251.638 929.684 251.638 929.511 250.505L927.184 235.216C927.119 234.785 926.782 234.447 926.352 234.379L911.242 231.988C910.117 231.81 910.117 230.19 911.242 230.012L926.352 227.621C926.782 227.553 927.119 227.214 927.184 226.784L929.511 211.495C929.684 210.362 931.316 210.362 931.489 211.495L933.816 226.784C933.881 227.214 934.218 227.553 934.648 227.621L949.758 230.012C950.883 230.19 950.883 231.81 949.758 231.988L934.648 234.379C934.218 234.447 933.881 234.785 933.816 235.216L931.489 250.505Z" fill="white"/>
<path d="M1249.49 378.505C1249.32 379.638 1247.68 379.638 1247.51 378.505L1245.18 363.216C1245.12 362.785 1244.78 362.447 1244.35 362.379L1229.24 359.988C1228.12 359.81 1228.12 358.19 1229.24 358.012L1244.35 355.621C1244.78 355.553 1245.12 355.214 1245.18 354.784L1247.51 339.495C1247.68 338.362 1249.32 338.362 1249.49 339.495L1251.82 354.784C1251.88 355.214 1252.22 355.553 1252.65 355.621L1267.76 358.012C1268.88 358.19 1268.88 359.81 1267.76 359.988L1252.65 362.379C1252.22 362.447 1251.88 362.785 1251.82 363.216L1249.49 378.505Z" fill="white"/>
<path d="M957.489 931.505C957.316 932.638 955.684 932.638 955.511 931.505L953.184 916.216C953.119 915.785 952.782 915.447 952.352 915.379L937.242 912.988C936.117 912.81 936.117 911.19 937.242 911.012L952.352 908.621C952.782 908.553 953.119 908.214 953.184 907.784L955.511 892.495C955.684 891.362 957.316 891.362 957.489 892.495L959.816 907.784C959.881 908.214 960.218 908.553 960.648 908.621L975.758 911.012C976.883 911.19 976.883 912.81 975.758 912.988L960.648 915.379C960.218 915.447 959.881 915.785 959.816 916.216L957.489 931.505Z" fill="white"/>
<path d="M1060.49 488.505C1060.32 489.638 1058.68 489.638 1058.51 488.505L1056.18 473.216C1056.12 472.785 1055.78 472.447 1055.35 472.379L1040.24 469.988C1039.12 469.81 1039.12 468.19 1040.24 468.012L1055.35 465.621C1055.78 465.553 1056.12 465.214 1056.18 464.784L1058.51 449.495C1058.68 448.362 1060.32 448.362 1060.49 449.495L1062.82 464.784C1062.88 465.214 1063.22 465.553 1063.65 465.621L1078.76 468.012C1079.88 468.19 1079.88 469.81 1078.76 469.988L1063.65 472.379C1063.22 472.447 1062.88 472.785 1062.82 473.216L1060.49 488.505Z" fill="white"/>
<path d="M1358.49 514.505C1358.32 515.638 1356.68 515.638 1356.51 514.505L1354.18 499.216C1354.12 498.785 1353.78 498.447 1353.35 498.379L1338.24 495.988C1337.12 495.81 1337.12 494.19 1338.24 494.012L1353.35 491.621C1353.78 491.553 1354.12 491.214 1354.18 490.784L1356.51 475.495C1356.68 474.362 1358.32 474.362 1358.49 475.495L1360.82 490.784C1360.88 491.214 1361.22 491.553 1361.65 491.621L1376.76 494.012C1377.88 494.19 1377.88 495.81 1376.76 495.988L1361.65 498.379C1361.22 498.447 1360.88 498.785 1360.82 499.216L1358.49 514.505Z" fill="white"/>
<path d="M1098.49 744.505C1098.32 745.638 1096.68 745.638 1096.51 744.505L1094.18 729.216C1094.12 728.785 1093.78 728.447 1093.35 728.379L1078.24 725.988C1077.12 725.81 1077.12 724.19 1078.24 724.012L1093.35 721.621C1093.78 721.553 1094.12 721.214 1094.18 720.784L1096.51 705.495C1096.68 704.362 1098.32 704.362 1098.49 705.495L1100.82 720.784C1100.88 721.214 1101.22 721.553 1101.65 721.621L1116.76 724.012C1117.88 724.19 1117.88 725.81 1116.76 725.988L1101.65 728.379C1101.22 728.447 1100.88 728.785 1100.82 729.216L1098.49 744.505Z" fill="white"/>
<path d="M1422.49 821.505C1422.32 822.638 1420.68 822.638 1420.51 821.505L1418.18 806.216C1418.12 805.785 1417.78 805.447 1417.35 805.379L1402.24 802.988C1401.12 802.81 1401.12 801.19 1402.24 801.012L1417.35 798.621C1417.78 798.553 1418.12 798.214 1418.18 797.784L1420.51 782.495C1420.68 781.362 1422.32 781.362 1422.49 782.495L1424.82 797.784C1424.88 798.214 1425.22 798.553 1425.65 798.621L1440.76 801.012C1441.88 801.19 1441.88 802.81 1440.76 802.988L1425.65 805.379C1425.22 805.447 1424.88 805.785 1424.82 806.216L1422.49 821.505Z" fill="white"/>
</svg>
