<svg width="3240" height="3240" viewBox="0 0 3240 3240" fill="none" xmlns="http://www.w3.org/2000/svg">
<rect width="3240" height="3240" fill="#1E2952"/>
<path d="M262.9 2849.14C263.352 2846.16 267.648 2846.16 268.1 2849.14L273.877 2887.23C274.049 2888.36 274.934 2889.25 276.065 2889.43L313.645 2895.4C316.602 2895.87 316.602 2900.13 313.645 2900.6L276.065 2906.57C274.934 2906.75 274.049 2907.64 273.877 2908.77L268.1 2946.86C267.648 2949.84 263.352 2949.84 262.9 2946.86L257.123 2908.77C256.951 2907.64 256.066 2906.75 254.935 2906.57L217.355 2900.6C214.398 2900.13 214.398 2895.87 217.355 2895.4L254.935 2889.43C256.066 2889.25 256.951 2888.36 257.123 2887.23L262.9 2849.14Z" fill="white"/>
<path d="M1138.9 1694.14C1139.35 1691.16 1143.65 1691.16 1144.1 1694.14L1149.88 1732.23C1150.05 1733.36 1150.93 1734.25 1152.06 1734.43L1189.65 1740.4C1192.6 1740.87 1192.6 1745.13 1189.65 1745.6L1152.06 1751.57C1150.93 1751.75 1150.05 1752.64 1149.88 1753.77L1144.1 1791.86C1143.65 1794.84 1139.35 1794.84 1138.9 1791.86L1133.12 1753.77C1132.95 1752.64 1132.07 1751.75 1130.94 1751.57L1093.35 1745.6C1090.4 1745.13 1090.4 1740.87 1093.35 1740.4L1130.94 1734.43C1132.07 1734.25 1132.95 1733.36 1133.12 1732.23L1138.9 1694.14Z" fill="white"/>
<path d="M2641.9 1115.14C2642.35 1112.16 2646.65 1112.16 2647.1 1115.14L2652.88 1153.23C2653.05 1154.36 2653.93 1155.25 2655.06 1155.43L2692.65 1161.4C2695.6 1161.87 2695.6 1166.13 2692.65 1166.6L2655.06 1172.57C2653.93 1172.75 2653.05 1173.64 2652.88 1174.77L2647.1 1212.86C2646.65 1215.84 2642.35 1215.84 2641.9 1212.86L2636.12 1174.77C2635.95 1173.64 2635.07 1172.75 2633.94 1172.57L2596.35 1166.6C2593.4 1166.13 2593.4 1161.87 2596.35 1161.4L2633.94 1155.43C2635.07 1155.25 2635.95 1154.36 2636.12 1153.23L2641.9 1115.14Z" fill="white"/>
<path d="M682.9 665.143C683.352 662.162 687.648 662.162 688.1 665.143L693.877 703.232C694.049 704.364 694.934 705.255 696.065 705.435L733.645 711.403C736.602 711.872 736.602 716.128 733.645 716.597L696.065 722.565C694.934 722.745 694.049 723.636 693.877 724.768L688.1 762.857C687.648 765.838 683.352 765.838 682.9 762.857L677.123 724.768C676.951 723.636 676.066 722.745 674.935 722.565L637.355 716.597C634.398 716.128 634.398 711.872 637.355 711.403L674.935 705.435C676.066 705.255 676.951 704.364 677.123 703.232L682.9 665.143Z" fill="white"/>
<path d="M2158.9 404.143C2159.35 401.162 2163.65 401.162 2164.1 404.143L2169.88 442.232C2170.05 443.364 2170.93 444.255 2172.06 444.435L2209.65 450.403C2212.6 450.872 2212.6 455.128 2209.65 455.597L2172.06 461.565C2170.93 461.745 2170.05 462.636 2169.88 463.768L2164.1 501.857C2163.65 504.838 2159.35 504.838 2158.9 501.857L2153.12 463.768C2152.95 462.636 2152.07 461.745 2150.94 461.565L2113.35 455.597C2110.4 455.128 2110.4 450.872 2113.35 450.403L2150.94 444.435C2152.07 444.255 2152.95 443.364 2153.12 442.232L2158.9 404.143Z" fill="white"/>
<path d="M2401.9 1970.14C2402.35 1967.16 2406.65 1967.16 2407.1 1970.14L2412.88 2008.23C2413.05 2009.36 2413.93 2010.25 2415.06 2010.43L2452.65 2016.4C2455.6 2016.87 2455.6 2021.13 2452.65 2021.6L2415.06 2027.57C2413.93 2027.75 2413.05 2028.64 2412.88 2029.77L2407.1 2067.86C2406.65 2070.84 2402.35 2070.84 2401.9 2067.86L2396.12 2029.77C2395.95 2028.64 2395.07 2027.75 2393.94 2027.57L2356.35 2021.6C2353.4 2021.13 2353.4 2016.87 2356.35 2016.4L2393.94 2010.43C2395.07 2010.25 2395.95 2009.36 2396.12 2008.23L2401.9 1970.14Z" fill="white"/>
<path d="M1708.9 1181.14C1709.35 1178.16 1713.65 1178.16 1714.1 1181.14L1719.88 1219.23C1720.05 1220.36 1720.93 1221.25 1722.06 1221.43L1759.65 1227.4C1762.6 1227.87 1762.6 1232.13 1759.65 1232.6L1722.06 1238.57C1720.93 1238.75 1720.05 1239.64 1719.88 1240.77L1714.1 1278.86C1713.65 1281.84 1709.35 1281.84 1708.9 1278.86L1703.12 1240.77C1702.95 1239.64 1702.07 1238.75 1700.94 1238.57L1663.35 1232.6C1660.4 1232.13 1660.4 1227.87 1663.35 1227.4L1700.94 1221.43C1702.07 1221.25 1702.95 1220.36 1703.12 1219.23L1708.9 1181.14Z" fill="white"/>
<path d="M103.9 203.143C104.352 200.162 108.648 200.162 109.1 203.143L114.877 241.232C115.049 242.364 115.934 243.255 117.065 243.435L154.645 249.403C157.602 249.872 157.602 254.128 154.645 254.597L117.065 260.565C115.934 260.745 115.049 261.636 114.877 262.768L109.1 300.857C108.648 303.838 104.352 303.838 103.9 300.857L98.1228 262.768C97.951 261.636 97.0662 260.745 95.9351 260.565L58.3549 254.597C55.3983 254.128 55.3984 249.872 58.3549 249.403L95.9351 243.435C97.0662 243.255 97.951 242.364 98.1228 241.232L103.9 203.143Z" fill="white"/>
<path d="M346.9 2036.14C347.352 2033.16 351.648 2033.16 352.1 2036.14L357.877 2074.23C358.049 2075.36 358.934 2076.25 360.065 2076.43L397.645 2082.4C400.602 2082.87 400.602 2087.13 397.645 2087.6L360.065 2093.57C358.934 2093.75 358.049 2094.64 357.877 2095.77L352.1 2133.86C351.648 2136.84 347.352 2136.84 346.9 2133.86L341.123 2095.77C340.951 2094.64 340.066 2093.75 338.935 2093.57L301.355 2087.6C298.398 2087.13 298.398 2082.87 301.355 2082.4L338.935 2076.43C340.066 2076.25 340.951 2075.36 341.123 2074.23L346.9 2036.14Z" fill="white"/>
<path d="M2872.9 2783.14C2873.35 2780.16 2877.65 2780.16 2878.1 2783.14L2883.88 2821.23C2884.05 2822.36 2884.93 2823.25 2886.06 2823.43L2923.65 2829.4C2926.6 2829.87 2926.6 2834.13 2923.65 2834.6L2886.06 2840.57C2884.93 2840.75 2884.05 2841.64 2883.88 2842.77L2878.1 2880.86C2877.65 2883.84 2873.35 2883.84 2872.9 2880.86L2867.12 2842.77C2866.95 2841.64 2866.07 2840.75 2864.94 2840.57L2827.35 2834.6C2824.4 2834.13 2824.4 2829.87 2827.35 2829.4L2864.94 2823.43C2866.07 2823.25 2866.95 2822.36 2867.12 2821.23L2872.9 2783.14Z" fill="white"/>
<path d="M262.9 2849.14C263.352 2846.16 267.648 2846.16 268.1 2849.14L273.877 2887.23C274.049 2888.36 274.934 2889.25 276.065 2889.43L313.645 2895.4C316.602 2895.87 316.602 2900.13 313.645 2900.6L276.065 2906.57C274.934 2906.75 274.049 2907.64 273.877 2908.77L268.1 2946.86C267.648 2949.84 263.352 2949.84 262.9 2946.86L257.123 2908.77C256.951 2907.64 256.066 2906.75 254.935 2906.57L217.355 2900.6C214.398 2900.13 214.398 2895.87 217.355 2895.4L254.935 2889.43C256.066 2889.25 256.951 2888.36 257.123 2887.23L262.9 2849.14Z" fill="white"/>
<path d="M1138.9 1694.14C1139.35 1691.16 1143.65 1691.16 1144.1 1694.14L1149.88 1732.23C1150.05 1733.36 1150.93 1734.25 1152.06 1734.43L1189.65 1740.4C1192.6 1740.87 1192.6 1745.13 1189.65 1745.6L1152.06 1751.57C1150.93 1751.75 1150.05 1752.64 1149.88 1753.77L1144.1 1791.86C1143.65 1794.84 1139.35 1794.84 1138.9 1791.86L1133.12 1753.77C1132.95 1752.64 1132.07 1751.75 1130.94 1751.57L1093.35 1745.6C1090.4 1745.13 1090.4 1740.87 1093.35 1740.4L1130.94 1734.43C1132.07 1734.25 1132.95 1733.36 1133.12 1732.23L1138.9 1694.14Z" fill="white"/>
<path d="M2641.9 1115.14C2642.35 1112.16 2646.65 1112.16 2647.1 1115.14L2652.88 1153.23C2653.05 1154.36 2653.93 1155.25 2655.06 1155.43L2692.65 1161.4C2695.6 1161.87 2695.6 1166.13 2692.65 1166.6L2655.06 1172.57C2653.93 1172.75 2653.05 1173.64 2652.88 1174.77L2647.1 1212.86C2646.65 1215.84 2642.35 1215.84 2641.9 1212.86L2636.12 1174.77C2635.95 1173.64 2635.07 1172.75 2633.94 1172.57L2596.35 1166.6C2593.4 1166.13 2593.4 1161.87 2596.35 1161.4L2633.94 1155.43C2635.07 1155.25 2635.95 1154.36 2636.12 1153.23L2641.9 1115.14Z" fill="white"/>
<path d="M682.9 665.143C683.352 662.162 687.648 662.162 688.1 665.143L693.877 703.232C694.049 704.364 694.934 705.255 696.065 705.435L733.645 711.403C736.602 711.872 736.602 716.128 733.645 716.597L696.065 722.565C694.934 722.745 694.049 723.636 693.877 724.768L688.1 762.857C687.648 765.838 683.352 765.838 682.9 762.857L677.123 724.768C676.951 723.636 676.066 722.745 674.935 722.565L637.355 716.597C634.398 716.128 634.398 711.872 637.355 711.403L674.935 705.435C676.066 705.255 676.951 704.364 677.123 703.232L682.9 665.143Z" fill="white"/>
<path d="M2158.9 404.143C2159.35 401.162 2163.65 401.162 2164.1 404.143L2169.88 442.232C2170.05 443.364 2170.93 444.255 2172.06 444.435L2209.65 450.403C2212.6 450.872 2212.6 455.128 2209.65 455.597L2172.06 461.565C2170.93 461.745 2170.05 462.636 2169.88 463.768L2164.1 501.857C2163.65 504.838 2159.35 504.838 2158.9 501.857L2153.12 463.768C2152.95 462.636 2152.07 461.745 2150.94 461.565L2113.35 455.597C2110.4 455.128 2110.4 450.872 2113.35 450.403L2150.94 444.435C2152.07 444.255 2152.95 443.364 2153.12 442.232L2158.9 404.143Z" fill="white"/>
<path d="M2401.9 1970.14C2402.35 1967.16 2406.65 1967.16 2407.1 1970.14L2412.88 2008.23C2413.05 2009.36 2413.93 2010.25 2415.06 2010.43L2452.65 2016.4C2455.6 2016.87 2455.6 2021.13 2452.65 2021.6L2415.06 2027.57C2413.93 2027.75 2413.05 2028.64 2412.88 2029.77L2407.1 2067.86C2406.65 2070.84 2402.35 2070.84 2401.9 2067.86L2396.12 2029.77C2395.95 2028.64 2395.07 2027.75 2393.94 2027.57L2356.35 2021.6C2353.4 2021.13 2353.4 2016.87 2356.35 2016.4L2393.94 2010.43C2395.07 2010.25 2395.95 2009.36 2396.12 2008.23L2401.9 1970.14Z" fill="white"/>
<path d="M1708.9 1181.14C1709.35 1178.16 1713.65 1178.16 1714.1 1181.14L1719.88 1219.23C1720.05 1220.36 1720.93 1221.25 1722.06 1221.43L1759.65 1227.4C1762.6 1227.87 1762.6 1232.13 1759.65 1232.6L1722.06 1238.57C1720.93 1238.75 1720.05 1239.64 1719.88 1240.77L1714.1 1278.86C1713.65 1281.84 1709.35 1281.84 1708.9 1278.86L1703.12 1240.77C1702.95 1239.64 1702.07 1238.75 1700.94 1238.57L1663.35 1232.6C1660.4 1232.13 1660.4 1227.87 1663.35 1227.4L1700.94 1221.43C1702.07 1221.25 1702.95 1220.36 1703.12 1219.23L1708.9 1181.14Z" fill="white"/>
<path d="M103.9 203.143C104.352 200.162 108.648 200.162 109.1 203.143L114.877 241.232C115.049 242.364 115.934 243.255 117.065 243.435L154.645 249.403C157.602 249.872 157.602 254.128 154.645 254.597L117.065 260.565C115.934 260.745 115.049 261.636 114.877 262.768L109.1 300.857C108.648 303.838 104.352 303.838 103.9 300.857L98.1228 262.768C97.951 261.636 97.0662 260.745 95.9351 260.565L58.3549 254.597C55.3983 254.128 55.3984 249.872 58.3549 249.403L95.9351 243.435C97.0662 243.255 97.951 242.364 98.1228 241.232L103.9 203.143Z" fill="white"/>
<path d="M1837.9 2717.14C1838.35 2714.16 1842.65 2714.16 1843.1 2717.14L1848.88 2755.23C1849.05 2756.36 1849.93 2757.25 1851.06 2757.43L1888.65 2763.4C1891.6 2763.87 1891.6 2768.13 1888.65 2768.6L1851.06 2774.57C1849.93 2774.75 1849.05 2775.64 1848.88 2776.77L1843.1 2814.86C1842.65 2817.84 1838.35 2817.84 1837.9 2814.86L1832.12 2776.77C1831.95 2775.64 1831.07 2774.75 1829.94 2774.57L1792.35 2768.6C1789.4 2768.13 1789.4 2763.87 1792.35 2763.4L1829.94 2757.43C1831.07 2757.25 1831.95 2756.36 1832.12 2755.23L1837.9 2717.14Z" fill="white"/>
<path d="M2872.9 2783.14C2873.35 2780.16 2877.65 2780.16 2878.1 2783.14L2883.88 2821.23C2884.05 2822.36 2884.93 2823.25 2886.06 2823.43L2923.65 2829.4C2926.6 2829.87 2926.6 2834.13 2923.65 2834.6L2886.06 2840.57C2884.93 2840.75 2884.05 2841.64 2883.88 2842.77L2878.1 2880.86C2877.65 2883.84 2873.35 2883.84 2872.9 2880.86L2867.12 2842.77C2866.95 2841.64 2866.07 2840.75 2864.94 2840.57L2827.35 2834.6C2824.4 2834.13 2824.4 2829.87 2827.35 2829.4L2864.94 2823.43C2866.07 2823.25 2866.95 2822.36 2867.12 2821.23L2872.9 2783.14Z" fill="white"/>
</svg>
