<svg width="1920" height="1080" viewBox="0 0 1920 1080" fill="none" xmlns="http://www.w3.org/2000/svg">
<rect x="1920" y="1080" width="1920" height="1080" transform="rotate(-180 1920 1080)" fill="#1E2952"/>
<path d="M1232.49 789.505C1232.32 790.638 1230.68 790.638 1230.51 789.505L1228.18 774.216C1228.12 773.785 1227.78 773.447 1227.35 773.379L1212.24 770.988C1211.12 770.81 1211.12 769.19 1212.24 769.012L1227.35 766.621C1227.78 766.553 1228.12 766.214 1228.18 765.784L1230.51 750.495C1230.68 749.362 1232.32 749.362 1232.49 750.495L1234.82 765.784C1234.88 766.214 1235.22 766.553 1235.65 766.621L1250.76 769.012C1251.88 769.19 1251.88 770.81 1250.76 770.988L1235.65 773.379C1235.22 773.447 1234.88 773.785 1234.82 774.216L1232.49 789.505Z" fill="white"/>
<path d="M1618.49 1032.51C1618.32 1033.64 1616.68 1033.64 1616.51 1032.51L1614.18 1017.22C1614.12 1016.79 1613.78 1016.45 1613.35 1016.38L1598.24 1013.99C1597.12 1013.81 1597.12 1012.19 1598.24 1012.01L1613.35 1009.62C1613.78 1009.55 1614.12 1009.21 1614.18 1008.78L1616.51 993.495C1616.68 992.362 1618.32 992.362 1618.49 993.495L1620.82 1008.78C1620.88 1009.21 1621.22 1009.55 1621.65 1009.62L1636.76 1012.01C1637.88 1012.19 1637.88 1013.81 1636.76 1013.99L1621.65 1016.38C1621.22 1016.45 1620.88 1016.79 1620.82 1017.22L1618.49 1032.51Z" fill="white"/>
<path d="M1885.49 397.505C1885.32 398.638 1883.68 398.638 1883.51 397.505L1881.18 382.216C1881.12 381.785 1880.78 381.447 1880.35 381.379L1865.24 378.988C1864.12 378.81 1864.12 377.19 1865.24 377.012L1880.35 374.621C1880.78 374.553 1881.12 374.214 1881.18 373.784L1883.51 358.495C1883.68 357.362 1885.32 357.362 1885.49 358.495L1887.82 373.784C1887.88 374.214 1888.22 374.553 1888.65 374.621L1903.76 377.012C1904.88 377.19 1904.88 378.81 1903.76 378.988L1888.65 381.379C1888.22 381.447 1887.88 381.785 1887.82 382.216L1885.49 397.505Z" fill="white"/>
<path d="M1442.49 201.505C1442.32 202.638 1440.68 202.638 1440.51 201.505L1438.18 186.216C1438.12 185.785 1437.78 185.447 1437.35 185.379L1422.24 182.988C1421.12 182.81 1421.12 181.19 1422.24 181.012L1437.35 178.621C1437.78 178.553 1438.12 178.214 1438.18 177.784L1440.51 162.495C1440.68 161.362 1442.32 161.362 1442.49 162.495L1444.82 177.784C1444.88 178.214 1445.22 178.553 1445.65 178.621L1460.76 181.012C1461.88 181.19 1461.88 182.81 1460.76 182.988L1445.65 185.379C1445.22 185.447 1444.88 185.785 1444.82 186.216L1442.49 201.505Z" fill="white"/>
<path d="M1766.49 175.505C1766.32 176.638 1764.68 176.638 1764.51 175.505L1762.18 160.216C1762.12 159.785 1761.78 159.447 1761.35 159.379L1746.24 156.988C1745.12 156.81 1745.12 155.19 1746.24 155.012L1761.35 152.621C1761.78 152.553 1762.12 152.214 1762.18 151.784L1764.51 136.495C1764.68 135.362 1766.32 135.362 1766.49 136.495L1768.82 151.784C1768.88 152.214 1769.22 152.553 1769.65 152.621L1784.76 155.012C1785.88 155.19 1785.88 156.81 1784.76 156.988L1769.65 159.379C1769.22 159.447 1768.88 159.785 1768.82 160.216L1766.49 175.505Z" fill="white"/>
<path d="M1326.49 321.505C1326.32 322.638 1324.68 322.638 1324.51 321.505L1322.18 306.216C1322.12 305.785 1321.78 305.447 1321.35 305.379L1306.24 302.988C1305.12 302.81 1305.12 301.19 1306.24 301.012L1321.35 298.621C1321.78 298.553 1322.12 298.214 1322.18 297.784L1324.51 282.495C1324.68 281.362 1326.32 281.362 1326.49 282.495L1328.82 297.784C1328.88 298.214 1329.22 298.553 1329.65 298.621L1344.76 301.012C1345.88 301.19 1345.88 302.81 1344.76 302.988L1329.65 305.379C1329.22 305.447 1328.88 305.785 1328.82 306.216L1326.49 321.505Z" fill="white"/>
<path d="M1644.49 449.505C1644.32 450.638 1642.68 450.638 1642.51 449.505L1640.18 434.216C1640.12 433.785 1639.78 433.447 1639.35 433.379L1624.24 430.988C1623.12 430.81 1623.12 429.19 1624.24 429.012L1639.35 426.621C1639.78 426.553 1640.12 426.214 1640.18 425.784L1642.51 410.495C1642.68 409.362 1644.32 409.362 1644.49 410.495L1646.82 425.784C1646.88 426.214 1647.22 426.553 1647.65 426.621L1662.76 429.012C1663.88 429.19 1663.88 430.81 1662.76 430.988L1647.65 433.379C1647.22 433.447 1646.88 433.785 1646.82 434.216L1644.49 449.505Z" fill="white"/>
<path d="M1352.49 1002.51C1352.32 1003.64 1350.68 1003.64 1350.51 1002.51L1348.18 987.216C1348.12 986.785 1347.78 986.447 1347.35 986.379L1332.24 983.988C1331.12 983.81 1331.12 982.19 1332.24 982.012L1347.35 979.621C1347.78 979.553 1348.12 979.214 1348.18 978.784L1350.51 963.495C1350.68 962.362 1352.32 962.362 1352.49 963.495L1354.82 978.784C1354.88 979.214 1355.22 979.553 1355.65 979.621L1370.76 982.012C1371.88 982.19 1371.88 983.81 1370.76 983.988L1355.65 986.379C1355.22 986.447 1354.88 986.785 1354.82 987.216L1352.49 1002.51Z" fill="white"/>
<path d="M1455.49 559.505C1455.32 560.638 1453.68 560.638 1453.51 559.505L1451.18 544.216C1451.12 543.785 1450.78 543.447 1450.35 543.379L1435.24 540.988C1434.12 540.81 1434.12 539.19 1435.24 539.012L1450.35 536.621C1450.78 536.553 1451.12 536.214 1451.18 535.784L1453.51 520.495C1453.68 519.362 1455.32 519.362 1455.49 520.495L1457.82 535.784C1457.88 536.214 1458.22 536.553 1458.65 536.621L1473.76 539.012C1474.88 539.19 1474.88 540.81 1473.76 540.988L1458.65 543.379C1458.22 543.447 1457.88 543.785 1457.82 544.216L1455.49 559.505Z" fill="white"/>
<path d="M1753.49 585.505C1753.32 586.638 1751.68 586.638 1751.51 585.505L1749.18 570.216C1749.12 569.785 1748.78 569.447 1748.35 569.379L1733.24 566.988C1732.12 566.81 1732.12 565.19 1733.24 565.012L1748.35 562.621C1748.78 562.553 1749.12 562.214 1749.18 561.784L1751.51 546.495C1751.68 545.362 1753.32 545.362 1753.49 546.495L1755.82 561.784C1755.88 562.214 1756.22 562.553 1756.65 562.621L1771.76 565.012C1772.88 565.19 1772.88 566.81 1771.76 566.988L1756.65 569.379C1756.22 569.447 1755.88 569.785 1755.82 570.216L1753.49 585.505Z" fill="white"/>
<path d="M1493.49 815.505C1493.32 816.638 1491.68 816.638 1491.51 815.505L1489.18 800.216C1489.12 799.785 1488.78 799.447 1488.35 799.379L1473.24 796.988C1472.12 796.81 1472.12 795.19 1473.24 795.012L1488.35 792.621C1488.78 792.553 1489.12 792.214 1489.18 791.784L1491.51 776.495C1491.68 775.362 1493.32 775.362 1493.49 776.495L1495.82 791.784C1495.88 792.214 1496.22 792.553 1496.65 792.621L1511.76 795.012C1512.88 795.19 1512.88 796.81 1511.76 796.988L1496.65 799.379C1496.22 799.447 1495.88 799.785 1495.82 800.216L1493.49 815.505Z" fill="white"/>
<path d="M1817.49 892.505C1817.32 893.638 1815.68 893.638 1815.51 892.505L1813.18 877.216C1813.12 876.785 1812.78 876.447 1812.35 876.379L1797.24 873.988C1796.12 873.81 1796.12 872.19 1797.24 872.012L1812.35 869.621C1812.78 869.553 1813.12 869.214 1813.18 868.784L1815.51 853.495C1815.68 852.362 1817.32 852.362 1817.49 853.495L1819.82 868.784C1819.88 869.214 1820.22 869.553 1820.65 869.621L1835.76 872.012C1836.88 872.19 1836.88 873.81 1835.76 873.988L1820.65 876.379C1820.22 876.447 1819.88 876.785 1819.82 877.216L1817.49 892.505Z" fill="white"/>
<path d="M198.489 449.505C198.316 450.638 196.684 450.638 196.511 449.505L194.184 434.216C194.119 433.785 193.782 433.447 193.352 433.379L178.242 430.988C177.117 430.81 177.117 429.19 178.242 429.012L193.352 426.621C193.782 426.553 194.119 426.214 194.184 425.784L196.511 410.495C196.684 409.362 198.316 409.362 198.489 410.495L200.816 425.784C200.881 426.214 201.218 426.553 201.648 426.621L216.758 429.012C217.883 429.19 217.883 430.81 216.758 430.988L201.648 433.379C201.218 433.447 200.881 433.785 200.816 434.216L198.489 449.505Z" fill="white"/>
<path d="M314.489 149.505C314.316 150.638 312.684 150.638 312.511 149.505L310.184 134.216C310.119 133.785 309.782 133.447 309.352 133.379L294.242 130.988C293.117 130.81 293.117 129.19 294.242 129.012L309.352 126.621C309.782 126.553 310.119 126.214 310.184 125.784L312.511 110.495C312.684 109.362 314.316 109.362 314.489 110.495L316.816 125.784C316.881 126.214 317.218 126.553 317.648 126.621L332.758 129.012C333.883 129.19 333.883 130.81 332.758 130.988L317.648 133.379C317.218 133.447 316.881 133.785 316.816 134.216L314.489 149.505Z" fill="white"/>
<path d="M1198.49 123.505C1198.32 124.638 1196.68 124.638 1196.51 123.505L1194.18 108.216C1194.12 107.785 1193.78 107.447 1193.35 107.379L1178.24 104.988C1177.12 104.81 1177.12 103.19 1178.24 103.012L1193.35 100.621C1193.78 100.553 1194.12 100.214 1194.18 99.784L1196.51 84.4948C1196.68 83.3621 1198.32 83.3621 1198.49 84.4948L1200.82 99.784C1200.88 100.214 1201.22 100.553 1201.65 100.621L1216.76 103.012C1217.88 103.19 1217.88 104.81 1216.76 104.988L1201.65 107.379C1201.22 107.447 1200.88 107.785 1200.82 108.216L1198.49 123.505Z" fill="white"/>
<path d="M460.489 449.505C460.316 450.638 458.684 450.638 458.511 449.505L456.184 434.216C456.119 433.785 455.782 433.447 455.352 433.379L440.242 430.988C439.117 430.81 439.117 429.19 440.242 429.012L455.352 426.621C455.782 426.553 456.119 426.214 456.184 425.784L458.511 410.495C458.684 409.362 460.316 409.362 460.489 410.495L462.816 425.784C462.881 426.214 463.218 426.553 463.648 426.621L478.758 429.012C479.883 429.19 479.883 430.81 478.758 430.988L463.648 433.379C463.218 433.447 462.881 433.785 462.816 434.216L460.489 449.505Z" fill="white"/>
<path d="M1135.49 542.505C1135.32 543.638 1133.68 543.638 1133.51 542.505L1131.18 527.216C1131.12 526.785 1130.78 526.447 1130.35 526.379L1115.24 523.988C1114.12 523.81 1114.12 522.19 1115.24 522.012L1130.35 519.621C1130.78 519.553 1131.12 519.214 1131.18 518.784L1133.51 503.495C1133.68 502.362 1135.32 502.362 1135.49 503.495L1137.82 518.784C1137.88 519.214 1138.22 519.553 1138.65 519.621L1153.76 522.012C1154.88 522.19 1154.88 523.81 1153.76 523.988L1138.65 526.379C1138.22 526.447 1137.88 526.785 1137.82 527.216L1135.49 542.505Z" fill="white"/>
<path d="M69.4886 227.505C69.3162 228.638 67.6838 228.638 67.5114 227.505L65.1841 212.216C65.1186 211.785 64.7819 211.447 64.3518 211.379L49.2417 208.988C48.1167 208.81 48.1167 207.19 49.2417 207.012L64.3518 204.621C64.7819 204.553 65.1186 204.214 65.1841 203.784L67.5114 188.495C67.6838 187.362 69.3162 187.362 69.4886 188.495L71.8159 203.784C71.8814 204.214 72.2181 204.553 72.6482 204.621L87.7584 207.012C88.8833 207.19 88.8833 208.81 87.7583 208.988L72.6482 211.379C72.2181 211.447 71.8814 211.785 71.8159 212.216L69.4886 227.505Z" fill="white"/>
<path d="M56.4886 637.505C56.3162 638.638 54.6838 638.638 54.5114 637.505L52.1841 622.216C52.1186 621.785 51.7819 621.447 51.3518 621.379L36.2417 618.988C35.1167 618.81 35.1167 617.19 36.2417 617.012L51.3518 614.621C51.7819 614.553 52.1186 614.214 52.1841 613.784L54.5114 598.495C54.6838 597.362 56.3162 597.362 56.4886 598.495L58.8159 613.784C58.8814 614.214 59.2181 614.553 59.6482 614.621L74.7584 617.012C75.8833 617.19 75.8833 618.81 74.7583 618.988L59.6482 621.379C59.2181 621.447 58.8814 621.785 58.8159 622.216L56.4886 637.505Z" fill="white"/>
<path d="M120.489 944.505C120.316 945.638 118.684 945.638 118.511 944.505L116.184 929.216C116.119 928.785 115.782 928.447 115.352 928.379L100.242 925.988C99.1167 925.81 99.1167 924.19 100.242 924.012L115.352 921.621C115.782 921.553 116.119 921.214 116.184 920.784L118.511 905.495C118.684 904.362 120.316 904.362 120.489 905.495L122.816 920.784C122.881 921.214 123.218 921.553 123.648 921.621L138.758 924.012C139.883 924.19 139.883 925.81 138.758 925.988L123.648 928.379C123.218 928.447 122.881 928.785 122.816 929.216L120.489 944.505Z" fill="white"/>
<path d="M1082.51 361.495C1082.68 360.362 1084.32 360.362 1084.49 361.495L1086.82 376.784C1086.88 377.215 1087.22 377.553 1087.65 377.621L1102.76 380.012C1103.88 380.19 1103.88 381.81 1102.76 381.988L1087.65 384.379C1087.22 384.447 1086.88 384.786 1086.82 385.216L1084.49 400.505C1084.32 401.638 1082.68 401.638 1082.51 400.505L1080.18 385.216C1080.12 384.786 1079.78 384.447 1079.35 384.379L1064.24 381.988C1063.12 381.81 1063.12 380.19 1064.24 380.012L1079.35 377.621C1079.78 377.553 1080.12 377.215 1080.18 376.784L1082.51 361.495Z" fill="white"/>
<path d="M696.511 118.495C696.684 117.362 698.316 117.362 698.489 118.495L700.816 133.784C700.881 134.215 701.218 134.553 701.648 134.621L716.758 137.012C717.883 137.19 717.883 138.81 716.758 138.988L701.648 141.379C701.218 141.447 700.881 141.786 700.816 142.216L698.489 157.505C698.316 158.638 696.684 158.638 696.511 157.505L694.184 142.216C694.119 141.786 693.782 141.447 693.352 141.379L678.242 138.988C677.117 138.81 677.117 137.19 678.242 137.012L693.352 134.621C693.782 134.553 694.119 134.215 694.184 133.784L696.511 118.495Z" fill="white"/>
<path d="M419.511 753.495C419.684 752.362 421.316 752.362 421.489 753.495L423.816 768.784C423.881 769.215 424.218 769.553 424.648 769.621L439.758 772.012C440.883 772.19 440.883 773.81 439.758 773.988L424.648 776.379C424.218 776.447 423.881 776.786 423.816 777.216L421.489 792.505C421.316 793.638 419.684 793.638 419.511 792.505L417.184 777.216C417.119 776.786 416.782 776.447 416.352 776.379L401.242 773.988C400.117 773.81 400.117 772.19 401.242 772.012L416.352 769.621C416.782 769.553 417.119 769.215 417.184 768.784L419.511 753.495Z" fill="white"/>
<path d="M872.511 949.495C872.684 948.362 874.316 948.362 874.489 949.495L876.816 964.784C876.881 965.215 877.218 965.553 877.648 965.621L892.758 968.012C893.883 968.19 893.883 969.81 892.758 969.988L877.648 972.379C877.218 972.447 876.881 972.786 876.816 973.216L874.489 988.505C874.316 989.638 872.684 989.638 872.511 988.505L870.184 973.216C870.119 972.786 869.782 972.447 869.352 972.379L854.242 969.988C853.117 969.81 853.117 968.19 854.242 968.012L869.352 965.621C869.782 965.553 870.119 965.215 870.184 964.784L872.511 949.495Z" fill="white"/>
<path d="M548.511 975.495C548.684 974.362 550.316 974.362 550.489 975.495L552.816 990.784C552.881 991.215 553.218 991.553 553.648 991.621L568.758 994.012C569.883 994.19 569.883 995.81 568.758 995.988L553.648 998.379C553.218 998.447 552.881 998.786 552.816 999.216L550.489 1014.51C550.316 1015.64 548.684 1015.64 548.511 1014.51L546.184 999.216C546.119 998.786 545.782 998.447 545.352 998.379L530.242 995.988C529.117 995.81 529.117 994.19 530.242 994.012L545.352 991.621C545.782 991.553 546.119 991.215 546.184 990.784L548.511 975.495Z" fill="white"/>
<path d="M988.511 829.495C988.684 828.362 990.316 828.362 990.489 829.495L992.816 844.784C992.881 845.215 993.218 845.553 993.648 845.621L1008.76 848.012C1009.88 848.19 1009.88 849.81 1008.76 849.988L993.648 852.379C993.218 852.447 992.881 852.786 992.816 853.216L990.489 868.505C990.316 869.638 988.684 869.638 988.511 868.505L986.184 853.216C986.119 852.786 985.782 852.447 985.352 852.379L970.242 849.988C969.117 849.81 969.117 848.19 970.242 848.012L985.352 845.621C985.782 845.553 986.119 845.215 986.184 844.784L988.511 829.495Z" fill="white"/>
<path d="M670.511 701.495C670.684 700.362 672.316 700.362 672.489 701.495L674.816 716.784C674.881 717.215 675.218 717.553 675.648 717.621L690.758 720.012C691.883 720.19 691.883 721.81 690.758 721.988L675.648 724.379C675.218 724.447 674.881 724.786 674.816 725.216L672.489 740.505C672.316 741.638 670.684 741.638 670.511 740.505L668.184 725.216C668.119 724.786 667.782 724.447 667.352 724.379L652.242 721.988C651.117 721.81 651.117 720.19 652.242 720.012L667.352 717.621C667.782 717.553 668.119 717.215 668.184 716.784L670.511 701.495Z" fill="white"/>
<path d="M962.511 148.495C962.684 147.362 964.316 147.362 964.489 148.495L966.816 163.784C966.881 164.215 967.218 164.553 967.648 164.621L982.758 167.012C983.883 167.19 983.883 168.81 982.758 168.988L967.648 171.379C967.218 171.447 966.881 171.786 966.816 172.216L964.489 187.505C964.316 188.638 962.684 188.638 962.511 187.505L960.184 172.216C960.119 171.786 959.782 171.447 959.352 171.379L944.242 168.988C943.117 168.81 943.117 167.19 944.242 167.012L959.352 164.621C959.782 164.553 960.119 164.215 960.184 163.784L962.511 148.495Z" fill="white"/>
<path d="M859.511 591.495C859.684 590.362 861.316 590.362 861.489 591.495L863.816 606.784C863.881 607.215 864.218 607.553 864.648 607.621L879.758 610.012C880.883 610.19 880.883 611.81 879.758 611.988L864.648 614.379C864.218 614.447 863.881 614.786 863.816 615.216L861.489 630.505C861.316 631.638 859.684 631.638 859.511 630.505L857.184 615.216C857.119 614.786 856.782 614.447 856.352 614.379L841.242 611.988C840.117 611.81 840.117 610.19 841.242 610.012L856.352 607.621C856.782 607.553 857.119 607.215 857.184 606.784L859.511 591.495Z" fill="white"/>
<path d="M561.511 565.495C561.684 564.362 563.316 564.362 563.489 565.495L565.816 580.784C565.881 581.215 566.218 581.553 566.648 581.621L581.758 584.012C582.883 584.19 582.883 585.81 581.758 585.988L566.648 588.379C566.218 588.447 565.881 588.786 565.816 589.216L563.489 604.505C563.316 605.638 561.684 605.638 561.511 604.505L559.184 589.216C559.119 588.786 558.782 588.447 558.352 588.379L543.242 585.988C542.117 585.81 542.117 584.19 543.242 584.012L558.352 581.621C558.782 581.553 559.119 581.215 559.184 580.784L561.511 565.495Z" fill="white"/>
<path d="M821.511 335.495C821.684 334.362 823.316 334.362 823.489 335.495L825.816 350.784C825.881 351.215 826.218 351.553 826.648 351.621L841.758 354.012C842.883 354.19 842.883 355.81 841.758 355.988L826.648 358.379C826.218 358.447 825.881 358.786 825.816 359.216L823.489 374.505C823.316 375.638 821.684 375.638 821.511 374.505L819.184 359.216C819.119 358.786 818.782 358.447 818.352 358.379L803.242 355.988C802.117 355.81 802.117 354.19 803.242 354.012L818.352 351.621C818.782 351.553 819.119 351.215 819.184 350.784L821.511 335.495Z" fill="white"/>
<path d="M497.511 258.495C497.684 257.362 499.316 257.362 499.489 258.495L501.816 273.784C501.881 274.215 502.218 274.553 502.648 274.621L517.758 277.012C518.883 277.19 518.883 278.81 517.758 278.988L502.648 281.379C502.218 281.447 501.881 281.786 501.816 282.216L499.489 297.505C499.316 298.638 497.684 298.638 497.511 297.505L495.184 282.216C495.119 281.786 494.782 281.447 494.352 281.379L479.242 278.988C478.117 278.81 478.117 277.19 479.242 277.012L494.352 274.621C494.782 274.553 495.119 274.215 495.184 273.784L497.511 258.495Z" fill="white"/>
</svg>
