<svg width="3840" height="2160" viewBox="0 0 3840 2160" fill="none" xmlns="http://www.w3.org/2000/svg">
<rect x="3840" y="2160" width="3840" height="2160" transform="rotate(-180 3840 2160)" fill="#1E2952"/>
<path d="M2463.99 1585.51C2463.82 1586.64 2462.18 1586.64 2462.01 1585.51L2456.26 1547.71C2456.19 1547.28 2455.86 1546.94 2455.43 1546.87L2418.24 1540.99C2417.12 1540.81 2417.12 1539.19 2418.24 1539.01L2455.43 1533.13C2455.86 1533.06 2456.19 1532.72 2456.26 1532.29L2462.01 1494.49C2462.18 1493.36 2463.82 1493.36 2463.99 1494.49L2469.74 1532.29C2469.81 1532.72 2470.14 1533.06 2470.57 1533.13L2507.76 1539.01C2508.88 1539.19 2508.88 1540.81 2507.76 1540.99L2470.57 1546.87C2470.14 1546.94 2469.81 1547.28 2469.74 1547.71L2463.99 1585.51Z" fill="white"/>
<path d="M3235.99 2071.51C3235.82 2072.64 3234.18 2072.64 3234.01 2071.51L3228.26 2033.71C3228.19 2033.28 3227.86 2032.94 3227.43 2032.87L3190.24 2026.99C3189.12 2026.81 3189.12 2025.19 3190.24 2025.01L3227.43 2019.13C3227.86 2019.06 3228.19 2018.72 3228.26 2018.29L3234.01 1980.49C3234.18 1979.36 3235.82 1979.36 3235.99 1980.49L3241.74 2018.29C3241.81 2018.72 3242.14 2019.06 3242.57 2019.13L3279.76 2025.01C3280.88 2025.19 3280.88 2026.81 3279.76 2026.99L3242.57 2032.87C3242.14 2032.94 3241.81 2033.28 3241.74 2033.71L3235.99 2071.51Z" fill="white"/>
<path d="M3769.99 801.505C3769.82 802.638 3768.18 802.638 3768.01 801.505L3762.26 763.709C3762.19 763.279 3761.86 762.94 3761.43 762.872L3724.24 756.988C3723.12 756.81 3723.12 755.19 3724.24 755.012L3761.43 749.128C3761.86 749.06 3762.19 748.721 3762.26 748.291L3768.01 710.495C3768.18 709.362 3769.82 709.362 3769.99 710.495L3775.74 748.291C3775.81 748.721 3776.14 749.06 3776.57 749.128L3813.76 755.012C3814.88 755.19 3814.88 756.81 3813.76 756.988L3776.57 762.872C3776.14 762.94 3775.81 763.279 3775.74 763.709L3769.99 801.505Z" fill="white"/>
<path d="M2883.99 409.505C2883.82 410.638 2882.18 410.638 2882.01 409.505L2876.26 371.709C2876.19 371.279 2875.86 370.94 2875.43 370.872L2838.24 364.988C2837.12 364.81 2837.12 363.19 2838.24 363.012L2875.43 357.128C2875.86 357.06 2876.19 356.721 2876.26 356.291L2882.01 318.495C2882.18 317.362 2883.82 317.362 2883.99 318.495L2889.74 356.291C2889.81 356.721 2890.14 357.06 2890.57 357.128L2927.76 363.012C2928.88 363.19 2928.88 364.81 2927.76 364.988L2890.57 370.872C2890.14 370.94 2889.81 371.279 2889.74 371.709L2883.99 409.505Z" fill="white"/>
<path d="M3531.99 357.505C3531.82 358.638 3530.18 358.638 3530.01 357.505L3524.26 319.709C3524.19 319.279 3523.86 318.94 3523.43 318.872L3486.24 312.988C3485.12 312.81 3485.12 311.19 3486.24 311.012L3523.43 305.128C3523.86 305.06 3524.19 304.721 3524.26 304.291L3530.01 266.495C3530.18 265.362 3531.82 265.362 3531.99 266.495L3537.74 304.291C3537.81 304.721 3538.14 305.06 3538.57 305.128L3575.76 311.012C3576.88 311.19 3576.88 312.81 3575.76 312.988L3538.57 318.872C3538.14 318.94 3537.81 319.279 3537.74 319.709L3531.99 357.505Z" fill="white"/>
<path d="M2651.99 649.505C2651.82 650.638 2650.18 650.638 2650.01 649.505L2644.26 611.709C2644.19 611.279 2643.86 610.94 2643.43 610.872L2606.24 604.988C2605.12 604.81 2605.12 603.19 2606.24 603.012L2643.43 597.128C2643.86 597.06 2644.19 596.721 2644.26 596.291L2650.01 558.495C2650.18 557.362 2651.82 557.362 2651.99 558.495L2657.74 596.291C2657.81 596.721 2658.14 597.06 2658.57 597.128L2695.76 603.012C2696.88 603.19 2696.88 604.81 2695.76 604.988L2658.57 610.872C2658.14 610.94 2657.81 611.279 2657.74 611.709L2651.99 649.505Z" fill="white"/>
<path d="M3287.99 905.505C3287.82 906.638 3286.18 906.638 3286.01 905.505L3280.26 867.709C3280.19 867.279 3279.86 866.94 3279.43 866.872L3242.24 860.988C3241.12 860.81 3241.12 859.19 3242.24 859.012L3279.43 853.128C3279.86 853.06 3280.19 852.721 3280.26 852.291L3286.01 814.495C3286.18 813.362 3287.82 813.362 3287.99 814.495L3293.74 852.291C3293.81 852.721 3294.14 853.06 3294.57 853.128L3331.76 859.012C3332.88 859.19 3332.88 860.81 3331.76 860.988L3294.57 866.872C3294.14 866.94 3293.81 867.279 3293.74 867.709L3287.99 905.505Z" fill="white"/>
<path d="M2703.99 2011.51C2703.82 2012.64 2702.18 2012.64 2702.01 2011.51L2696.26 1973.71C2696.19 1973.28 2695.86 1972.94 2695.43 1972.87L2658.24 1966.99C2657.12 1966.81 2657.12 1965.19 2658.24 1965.01L2695.43 1959.13C2695.86 1959.06 2696.19 1958.72 2696.26 1958.29L2702.01 1920.49C2702.18 1919.36 2703.82 1919.36 2703.99 1920.49L2709.74 1958.29C2709.81 1958.72 2710.14 1959.06 2710.57 1959.13L2747.76 1965.01C2748.88 1965.19 2748.88 1966.81 2747.76 1966.99L2710.57 1972.87C2710.14 1972.94 2709.81 1973.28 2709.74 1973.71L2703.99 2011.51Z" fill="white"/>
<path d="M2909.99 1125.51C2909.82 1126.64 2908.18 1126.64 2908.01 1125.51L2902.26 1087.71C2902.19 1087.28 2901.86 1086.94 2901.43 1086.87L2864.24 1080.99C2863.12 1080.81 2863.12 1079.19 2864.24 1079.01L2901.43 1073.13C2901.86 1073.06 2902.19 1072.72 2902.26 1072.29L2908.01 1034.49C2908.18 1033.36 2909.82 1033.36 2909.99 1034.49L2915.74 1072.29C2915.81 1072.72 2916.14 1073.06 2916.57 1073.13L2953.76 1079.01C2954.88 1079.19 2954.88 1080.81 2953.76 1080.99L2916.57 1086.87C2916.14 1086.94 2915.81 1087.28 2915.74 1087.71L2909.99 1125.51Z" fill="white"/>
<path d="M3505.99 1177.51C3505.82 1178.64 3504.18 1178.64 3504.01 1177.51L3498.26 1139.71C3498.19 1139.28 3497.86 1138.94 3497.43 1138.87L3460.24 1132.99C3459.12 1132.81 3459.12 1131.19 3460.24 1131.01L3497.43 1125.13C3497.86 1125.06 3498.19 1124.72 3498.26 1124.29L3504.01 1086.49C3504.18 1085.36 3505.82 1085.36 3505.99 1086.49L3511.74 1124.29C3511.81 1124.72 3512.14 1125.06 3512.57 1125.13L3549.76 1131.01C3550.88 1131.19 3550.88 1132.81 3549.76 1132.99L3512.57 1138.87C3512.14 1138.94 3511.81 1139.28 3511.74 1139.71L3505.99 1177.51Z" fill="white"/>
<path d="M2985.99 1637.51C2985.82 1638.64 2984.18 1638.64 2984.01 1637.51L2978.26 1599.71C2978.19 1599.28 2977.86 1598.94 2977.43 1598.87L2940.24 1592.99C2939.12 1592.81 2939.12 1591.19 2940.24 1591.01L2977.43 1585.13C2977.86 1585.06 2978.19 1584.72 2978.26 1584.29L2984.01 1546.49C2984.18 1545.36 2985.82 1545.36 2985.99 1546.49L2991.74 1584.29C2991.81 1584.72 2992.14 1585.06 2992.57 1585.13L3029.76 1591.01C3030.88 1591.19 3030.88 1592.81 3029.76 1592.99L2992.57 1598.87C2992.14 1598.94 2991.81 1599.28 2991.74 1599.71L2985.99 1637.51Z" fill="white"/>
<path d="M3633.99 1791.51C3633.82 1792.64 3632.18 1792.64 3632.01 1791.51L3626.26 1753.71C3626.19 1753.28 3625.86 1752.94 3625.43 1752.87L3588.24 1746.99C3587.12 1746.81 3587.12 1745.19 3588.24 1745.01L3625.43 1739.13C3625.86 1739.06 3626.19 1738.72 3626.26 1738.29L3632.01 1700.49C3632.18 1699.36 3633.82 1699.36 3633.99 1700.49L3639.74 1738.29C3639.81 1738.72 3640.14 1739.06 3640.57 1739.13L3677.76 1745.01C3678.88 1745.19 3678.88 1746.81 3677.76 1746.99L3640.57 1752.87C3640.14 1752.94 3639.81 1753.28 3639.74 1753.71L3633.99 1791.51Z" fill="white"/>
<path d="M395.989 905.505C395.816 906.638 394.184 906.638 394.011 905.505L388.258 867.709C388.193 867.279 387.856 866.94 387.426 866.872L350.242 860.988C349.117 860.81 349.117 859.19 350.242 859.012L387.426 853.128C387.856 853.06 388.193 852.721 388.258 852.291L394.011 814.495C394.184 813.362 395.816 813.362 395.989 814.495L401.742 852.291C401.807 852.721 402.144 853.06 402.574 853.128L439.758 859.012C440.883 859.19 440.883 860.81 439.758 860.988L402.574 866.872C402.144 866.94 401.807 867.279 401.742 867.709L395.989 905.505Z" fill="white"/>
<path d="M627.989 305.505C627.816 306.638 626.184 306.638 626.011 305.505L620.258 267.709C620.193 267.279 619.856 266.94 619.426 266.872L582.242 260.988C581.117 260.81 581.117 259.19 582.242 259.012L619.426 253.128C619.856 253.06 620.193 252.721 620.258 252.291L626.011 214.495C626.184 213.362 627.816 213.362 627.989 214.495L633.742 252.291C633.807 252.721 634.144 253.06 634.574 253.128L671.758 259.012C672.883 259.19 672.883 260.81 671.758 260.988L634.574 266.872C634.144 266.94 633.807 267.279 633.742 267.709L627.989 305.505Z" fill="white"/>
<path d="M2395.99 253.505C2395.82 254.638 2394.18 254.638 2394.01 253.505L2388.26 215.709C2388.19 215.279 2387.86 214.94 2387.43 214.872L2350.24 208.988C2349.12 208.81 2349.12 207.19 2350.24 207.012L2387.43 201.128C2387.86 201.06 2388.19 200.721 2388.26 200.291L2394.01 162.495C2394.18 161.362 2395.82 161.362 2395.99 162.495L2401.74 200.291C2401.81 200.721 2402.14 201.06 2402.57 201.128L2439.76 207.012C2440.88 207.19 2440.88 208.81 2439.76 208.988L2402.57 214.872C2402.14 214.94 2401.81 215.279 2401.74 215.709L2395.99 253.505Z" fill="white"/>
<path d="M919.989 905.505C919.816 906.638 918.184 906.638 918.011 905.505L912.258 867.709C912.193 867.279 911.856 866.94 911.426 866.872L874.242 860.988C873.117 860.81 873.117 859.19 874.242 859.012L911.426 853.128C911.856 853.06 912.193 852.721 912.258 852.291L918.011 814.495C918.184 813.362 919.816 813.362 919.989 814.495L925.742 852.291C925.807 852.721 926.144 853.06 926.574 853.128L963.758 859.012C964.883 859.19 964.883 860.81 963.758 860.988L926.574 866.872C926.144 866.94 925.807 867.279 925.742 867.709L919.989 905.505Z" fill="white"/>
<path d="M2269.99 1091.51C2269.82 1092.64 2268.18 1092.64 2268.01 1091.51L2262.26 1053.71C2262.19 1053.28 2261.86 1052.94 2261.43 1052.87L2224.24 1046.99C2223.12 1046.81 2223.12 1045.19 2224.24 1045.01L2261.43 1039.13C2261.86 1039.06 2262.19 1038.72 2262.26 1038.29L2268.01 1000.49C2268.18 999.362 2269.82 999.362 2269.99 1000.49L2275.74 1038.29C2275.81 1038.72 2276.14 1039.06 2276.57 1039.13L2313.76 1045.01C2314.88 1045.19 2314.88 1046.81 2313.76 1046.99L2276.57 1052.87C2276.14 1052.94 2275.81 1053.28 2275.74 1053.71L2269.99 1091.51Z" fill="white"/>
<path d="M137.989 461.505C137.816 462.638 136.184 462.638 136.011 461.505L130.258 423.709C130.193 423.279 129.856 422.94 129.426 422.872L92.2417 416.988C91.1167 416.81 91.1167 415.19 92.2417 415.012L129.426 409.128C129.856 409.06 130.193 408.721 130.258 408.291L136.011 370.495C136.184 369.362 137.816 369.362 137.989 370.495L143.742 408.291C143.807 408.721 144.144 409.06 144.574 409.128L181.758 415.012C182.883 415.19 182.883 416.81 181.758 416.988L144.574 422.872C144.144 422.94 143.807 423.279 143.742 423.709L137.989 461.505Z" fill="white"/>
<path d="M111.989 1281.51C111.816 1282.64 110.184 1282.64 110.011 1281.51L104.258 1243.71C104.193 1243.28 103.856 1242.94 103.426 1242.87L66.2417 1236.99C65.1167 1236.81 65.1167 1235.19 66.2417 1235.01L103.426 1229.13C103.856 1229.06 104.193 1228.72 104.258 1228.29L110.011 1190.49C110.184 1189.36 111.816 1189.36 111.989 1190.49L117.742 1228.29C117.807 1228.72 118.144 1229.06 118.574 1229.13L155.758 1235.01C156.883 1235.19 156.883 1236.81 155.758 1236.99L118.574 1242.87C118.144 1242.94 117.807 1243.28 117.742 1243.71L111.989 1281.51Z" fill="white"/>
<path d="M239.989 1895.51C239.816 1896.64 238.184 1896.64 238.011 1895.51L232.258 1857.71C232.193 1857.28 231.856 1856.94 231.426 1856.87L194.242 1850.99C193.117 1850.81 193.117 1849.19 194.242 1849.01L231.426 1843.13C231.856 1843.06 232.193 1842.72 232.258 1842.29L238.011 1804.49C238.184 1803.36 239.816 1803.36 239.989 1804.49L245.742 1842.29C245.807 1842.72 246.144 1843.06 246.574 1843.13L283.758 1849.01C284.883 1849.19 284.883 1850.81 283.758 1850.99L246.574 1856.87C246.144 1856.94 245.807 1857.28 245.742 1857.71L239.989 1895.51Z" fill="white"/>
<path d="M2166.01 716.495C2166.18 715.362 2167.82 715.362 2167.99 716.495L2173.74 754.291C2173.81 754.721 2174.14 755.06 2174.57 755.128L2211.76 761.012C2212.88 761.19 2212.88 762.81 2211.76 762.988L2174.57 768.872C2174.14 768.94 2173.81 769.279 2173.74 769.709L2167.99 807.505C2167.82 808.638 2166.18 808.638 2166.01 807.505L2160.26 769.709C2160.19 769.279 2159.86 768.94 2159.43 768.872L2122.24 762.988C2121.12 762.81 2121.12 761.19 2122.24 761.012L2159.43 755.128C2159.86 755.06 2160.19 754.721 2160.26 754.291L2166.01 716.495Z" fill="white"/>
<path d="M1394.01 230.495C1394.18 229.362 1395.82 229.362 1395.99 230.495L1401.74 268.291C1401.81 268.721 1402.14 269.06 1402.57 269.128L1439.76 275.012C1440.88 275.19 1440.88 276.81 1439.76 276.988L1402.57 282.872C1402.14 282.94 1401.81 283.279 1401.74 283.709L1395.99 321.505C1395.82 322.638 1394.18 322.638 1394.01 321.505L1388.26 283.709C1388.19 283.279 1387.86 282.94 1387.43 282.872L1350.24 276.988C1349.12 276.81 1349.12 275.19 1350.24 275.012L1387.43 269.128C1387.86 269.06 1388.19 268.721 1388.26 268.291L1394.01 230.495Z" fill="white"/>
<path d="M840.011 1500.49C840.184 1499.36 841.816 1499.36 841.989 1500.49L847.742 1538.29C847.807 1538.72 848.144 1539.06 848.574 1539.13L885.758 1545.01C886.883 1545.19 886.883 1546.81 885.758 1546.99L848.574 1552.87C848.144 1552.94 847.807 1553.28 847.742 1553.71L841.989 1591.51C841.816 1592.64 840.184 1592.64 840.011 1591.51L834.258 1553.71C834.193 1553.28 833.856 1552.94 833.426 1552.87L796.242 1546.99C795.117 1546.81 795.117 1545.19 796.242 1545.01L833.426 1539.13C833.856 1539.06 834.193 1538.72 834.258 1538.29L840.011 1500.49Z" fill="white"/>
<path d="M1746.01 1892.49C1746.18 1891.36 1747.82 1891.36 1747.99 1892.49L1753.74 1930.29C1753.81 1930.72 1754.14 1931.06 1754.57 1931.13L1791.76 1937.01C1792.88 1937.19 1792.88 1938.81 1791.76 1938.99L1754.57 1944.87C1754.14 1944.94 1753.81 1945.28 1753.74 1945.71L1747.99 1983.51C1747.82 1984.64 1746.18 1984.64 1746.01 1983.51L1740.26 1945.71C1740.19 1945.28 1739.86 1944.94 1739.43 1944.87L1702.24 1938.99C1701.12 1938.81 1701.12 1937.19 1702.24 1937.01L1739.43 1931.13C1739.86 1931.06 1740.19 1930.72 1740.26 1930.29L1746.01 1892.49Z" fill="white"/>
<path d="M1098.01 1944.49C1098.18 1943.36 1099.82 1943.36 1099.99 1944.49L1105.74 1982.29C1105.81 1982.72 1106.14 1983.06 1106.57 1983.13L1143.76 1989.01C1144.88 1989.19 1144.88 1990.81 1143.76 1990.99L1106.57 1996.87C1106.14 1996.94 1105.81 1997.28 1105.74 1997.71L1099.99 2035.51C1099.82 2036.64 1098.18 2036.64 1098.01 2035.51L1092.26 1997.71C1092.19 1997.28 1091.86 1996.94 1091.43 1996.87L1054.24 1990.99C1053.12 1990.81 1053.12 1989.19 1054.24 1989.01L1091.43 1983.13C1091.86 1983.06 1092.19 1982.72 1092.26 1982.29L1098.01 1944.49Z" fill="white"/>
<path d="M1978.01 1652.49C1978.18 1651.36 1979.82 1651.36 1979.99 1652.49L1985.74 1690.29C1985.81 1690.72 1986.14 1691.06 1986.57 1691.13L2023.76 1697.01C2024.88 1697.19 2024.88 1698.81 2023.76 1698.99L1986.57 1704.87C1986.14 1704.94 1985.81 1705.28 1985.74 1705.71L1979.99 1743.51C1979.82 1744.64 1978.18 1744.64 1978.01 1743.51L1972.26 1705.71C1972.19 1705.28 1971.86 1704.94 1971.43 1704.87L1934.24 1698.99C1933.12 1698.81 1933.12 1697.19 1934.24 1697.01L1971.43 1691.13C1971.86 1691.06 1972.19 1690.72 1972.26 1690.29L1978.01 1652.49Z" fill="white"/>
<path d="M1342.01 1396.49C1342.18 1395.36 1343.82 1395.36 1343.99 1396.49L1349.74 1434.29C1349.81 1434.72 1350.14 1435.06 1350.57 1435.13L1387.76 1441.01C1388.88 1441.19 1388.88 1442.81 1387.76 1442.99L1350.57 1448.87C1350.14 1448.94 1349.81 1449.28 1349.74 1449.71L1343.99 1487.51C1343.82 1488.64 1342.18 1488.64 1342.01 1487.51L1336.26 1449.71C1336.19 1449.28 1335.86 1448.94 1335.43 1448.87L1298.24 1442.99C1297.12 1442.81 1297.12 1441.19 1298.24 1441.01L1335.43 1435.13C1335.86 1435.06 1336.19 1434.72 1336.26 1434.29L1342.01 1396.49Z" fill="white"/>
<path d="M1926.01 290.495C1926.18 289.362 1927.82 289.362 1927.99 290.495L1933.74 328.291C1933.81 328.721 1934.14 329.06 1934.57 329.128L1971.76 335.012C1972.88 335.19 1972.88 336.81 1971.76 336.988L1934.57 342.872C1934.14 342.94 1933.81 343.279 1933.74 343.709L1927.99 381.505C1927.82 382.638 1926.18 382.638 1926.01 381.505L1920.26 343.709C1920.19 343.279 1919.86 342.94 1919.43 342.872L1882.24 336.988C1881.12 336.81 1881.12 335.19 1882.24 335.012L1919.43 329.128C1919.86 329.06 1920.19 328.721 1920.26 328.291L1926.01 290.495Z" fill="white"/>
<path d="M1720.01 1176.49C1720.18 1175.36 1721.82 1175.36 1721.99 1176.49L1727.74 1214.29C1727.81 1214.72 1728.14 1215.06 1728.57 1215.13L1765.76 1221.01C1766.88 1221.19 1766.88 1222.81 1765.76 1222.99L1728.57 1228.87C1728.14 1228.94 1727.81 1229.28 1727.74 1229.71L1721.99 1267.51C1721.82 1268.64 1720.18 1268.64 1720.01 1267.51L1714.26 1229.71C1714.19 1229.28 1713.86 1228.94 1713.43 1228.87L1676.24 1222.99C1675.12 1222.81 1675.12 1221.19 1676.24 1221.01L1713.43 1215.13C1713.86 1215.06 1714.19 1214.72 1714.26 1214.29L1720.01 1176.49Z" fill="white"/>
<path d="M1124.01 1124.49C1124.18 1123.36 1125.82 1123.36 1125.99 1124.49L1131.74 1162.29C1131.81 1162.72 1132.14 1163.06 1132.57 1163.13L1169.76 1169.01C1170.88 1169.19 1170.88 1170.81 1169.76 1170.99L1132.57 1176.87C1132.14 1176.94 1131.81 1177.28 1131.74 1177.71L1125.99 1215.51C1125.82 1216.64 1124.18 1216.64 1124.01 1215.51L1118.26 1177.71C1118.19 1177.28 1117.86 1176.94 1117.43 1176.87L1080.24 1170.99C1079.12 1170.81 1079.12 1169.19 1080.24 1169.01L1117.43 1163.13C1117.86 1163.06 1118.19 1162.72 1118.26 1162.29L1124.01 1124.49Z" fill="white"/>
<path d="M1644.01 664.495C1644.18 663.362 1645.82 663.362 1645.99 664.495L1651.74 702.291C1651.81 702.721 1652.14 703.06 1652.57 703.128L1689.76 709.012C1690.88 709.19 1690.88 710.81 1689.76 710.988L1652.57 716.872C1652.14 716.94 1651.81 717.279 1651.74 717.709L1645.99 755.505C1645.82 756.638 1644.18 756.638 1644.01 755.505L1638.26 717.709C1638.19 717.279 1637.86 716.94 1637.43 716.872L1600.24 710.988C1599.12 710.81 1599.12 709.19 1600.24 709.012L1637.43 703.128C1637.86 703.06 1638.19 702.721 1638.26 702.291L1644.01 664.495Z" fill="white"/>
<path d="M996.011 510.495C996.184 509.362 997.816 509.362 997.989 510.495L1003.74 548.291C1003.81 548.721 1004.14 549.06 1004.57 549.128L1041.76 555.012C1042.88 555.19 1042.88 556.81 1041.76 556.988L1004.57 562.872C1004.14 562.94 1003.81 563.279 1003.74 563.709L997.989 601.505C997.816 602.638 996.184 602.638 996.011 601.505L990.258 563.709C990.193 563.279 989.856 562.94 989.426 562.872L952.242 556.988C951.117 556.81 951.117 555.19 952.242 555.012L989.426 549.128C989.856 549.06 990.193 548.721 990.258 548.291L996.011 510.495Z" fill="white"/>
</svg>
